<?xml version="1.0" encoding="UTF-8"?>
<svg version="1.1" xmlns="http://www.w3.org/2000/svg" width="138" height="162">
<path d="M0 0 C45.54 0 91.08 0 138 0 C138 53.46 138 106.92 138 162 C92.46 162 46.92 162 0 162 C0 108.54 0 55.08 0 0 Z " fill="#FEFCFB" transform="translate(0,0)"/>
<path d="M0 0 C0.74584854 0.00091141 1.49169708 0.00182281 2.26014709 0.00276184 C3.02706375 -0.00152328 3.79398041 -0.00580841 4.58413696 -0.01022339 C6.20733146 -0.01597014 7.83055172 -0.0164644 9.45375061 -0.01213074 C11.93849128 -0.00897351 14.42203836 -0.03241445 16.90663147 -0.05778503 C18.48280184 -0.06005827 20.05897542 -0.06076141 21.63514709 -0.05973816 C22.75088356 -0.07355278 22.75088356 -0.07355278 23.88916016 -0.08764648 C26.74088756 -0.06205329 28.97651971 -0.00185259 31.48817444 1.42512512 C33.01887017 4.22787928 32.85015109 6.5443425 32.80702209 9.72151184 C32.79252014 11.60193176 32.79252014 11.60193176 32.77772522 13.52033997 C32.7525885 14.830672 32.72745178 16.14100403 32.70155334 17.49104309 C32.68650302 18.82631472 32.67281521 20.16160246 32.66053772 21.49690247 C32.62513029 24.76618886 32.57574225 28.03466402 32.51405334 31.30354309 C33.13280334 31.42729309 33.75155334 31.55104309 34.38905334 31.67854309 C36.51405334 32.30354309 36.51405334 32.30354309 38.51405334 34.30354309 C38.88905334 37.17854309 38.88905334 37.17854309 38.51405334 40.30354309 C36.63905334 42.67854309 36.63905334 42.67854309 34.51405334 44.30354309 C33.85405334 44.30354309 33.19405334 44.30354309 32.51405334 44.30354309 C32.55530334 45.25229309 32.59655334 46.20104309 32.63905334 47.17854309 C32.51405334 50.30354309 32.51405334 50.30354309 30.51405334 52.30354309 C29.19405334 52.30354309 27.87405334 52.30354309 26.51405334 52.30354309 C24.36210965 49.07562754 24.31318892 48.019535 24.51405334 44.30354309 C23.85405334 44.30354309 23.19405334 44.30354309 22.51405334 44.30354309 C22.53467834 45.27291809 22.55530334 46.24229309 22.57655334 47.24104309 C22.51405334 50.30354309 22.51405334 50.30354309 21.51405334 51.30354309 C19.01405334 51.42854309 19.01405334 51.42854309 16.51405334 51.30354309 C16.18405334 50.97354309 15.85405334 50.64354309 15.51405334 50.30354309 C15.51405334 48.32354309 15.51405334 46.34354309 15.51405334 44.30354309 C8.25405334 44.30354309 0.99405334 44.30354309 -6.48594666 44.30354309 C-6.81594666 46.28354309 -7.14594666 48.26354309 -7.48594666 50.30354309 C-10.62860892 53.44620535 -14.14732025 52.67188764 -18.42344666 52.67854309 C-19.24780212 52.70303528 -20.07215759 52.72752747 -20.92149353 52.75276184 C-21.7149115 52.75662903 -22.50832947 52.76049622 -23.32579041 52.76448059 C-24.05145203 52.77269836 -24.77711365 52.78091614 -25.52476501 52.78938293 C-27.48594666 52.30354309 -27.48594666 52.30354309 -29.22105408 50.74372864 C-30.93102762 47.4449088 -30.91624568 44.42918177 -30.88438416 40.79963684 C-30.88725433 40.07994217 -30.89012451 39.3602475 -30.89308167 38.6187439 C-30.89511811 37.10164093 -30.88961752 35.58451146 -30.87705994 34.06745911 C-30.86097522 31.74516736 -30.87693319 29.4246096 -30.89610291 27.10237122 C-30.89412086 25.62645592 -30.89027797 24.1505417 -30.88438416 22.67463684 C-30.89045685 21.9808342 -30.89652954 21.28703156 -30.90278625 20.57220459 C-30.86163823 17.75452885 -30.78178532 15.75732226 -29.22105408 13.36335754 C-27.09061399 12.06207143 -25.8141159 11.94337127 -23.32579041 11.97541809 C-22.13566345 11.98315247 -22.13566345 11.98315247 -20.92149353 11.99104309 C-19.68496033 12.02198059 -19.68496033 12.02198059 -18.42344666 12.05354309 C-17.595224 12.05869934 -16.76700134 12.06385559 -15.91368103 12.06916809 C-9.79539214 12.14882035 -9.79539214 12.14882035 -7.48594666 13.30354309 C-7.50914978 12.53268372 -7.53235291 11.76182434 -7.55625916 10.96760559 C-7.57430603 9.96471497 -7.59235291 8.96182434 -7.61094666 7.92854309 C-7.63414978 6.93080872 -7.65735291 5.93307434 -7.68125916 4.90510559 C-7.29877288 -0.18961163 -4.42885717 0.06110349 0 0 Z " fill="#363763" transform="translate(70.48594665527344,67.69645690917969)"/>
<path d="M0 0 C1.43352212 0.00015908 2.86704998 0.00585132 4.30053711 0.01586914 C5.43041298 0.01799156 5.43041298 0.01799156 6.58311462 0.02015686 C8.99807646 0.02577163 11.41294687 0.03832656 13.82788086 0.05102539 C15.46134307 0.05603849 17.09480672 0.06060173 18.72827148 0.06469727 C22.74067671 0.07574585 26.75301326 0.09302033 30.76538086 0.11352539 C32.14846867 2.87970102 31.87748282 5.12370539 31.86303711 8.21508789 C31.85981445 9.42680664 31.8565918 10.63852539 31.85327148 11.88696289 C31.84070313 13.79348633 31.84070313 13.79348633 31.82788086 15.73852539 C31.82336914 17.01727539 31.81885742 18.29602539 31.81420898 19.61352539 C31.80239289 22.78023831 31.78591901 25.94685895 31.76538086 29.11352539 C30.77538086 29.44352539 29.78538086 29.77352539 28.76538086 30.11352539 C28.10538086 31.10352539 27.44538086 32.09352539 26.76538086 33.11352539 C25.44538086 33.11352539 24.12538086 33.11352539 22.76538086 33.11352539 C22.10538086 32.12352539 21.44538086 31.13352539 20.76538086 30.11352539 C17.26538086 29.61352539 17.26538086 29.61352539 13.76538086 30.11352539 C13.10538086 31.10352539 12.44538086 32.09352539 11.76538086 33.11352539 C8.97685195 33.33460326 6.41884905 33.39460074 3.64038086 33.30102539 C2.50922852 33.28072266 2.50922852 33.28072266 1.35522461 33.26000977 C-0.50836041 33.22462524 -2.37157892 33.17081706 -4.23461914 33.11352539 C-4.25927306 28.57454834 -4.27745703 24.03560996 -4.28955078 19.49658203 C-4.29459054 17.95132773 -4.30142234 16.40607823 -4.31005859 14.86083984 C-4.3221399 12.6442751 -4.32785087 10.42777321 -4.33227539 8.21118164 C-4.33743668 7.51638199 -4.34259796 6.82158234 -4.34791565 6.10572815 C-4.34811191 4.44123209 -4.29651043 2.7768704 -4.23461914 1.11352539 C-3.23461914 0.11352539 -3.23461914 0.11352539 0 0 Z " fill="#9897FA" transform="translate(69.234619140625,69.886474609375)"/>
<path d="M0 0 C1.21816406 0.03480469 1.21816406 0.03480469 2.4609375 0.0703125 C3.68683594 0.09738281 3.68683594 0.09738281 4.9375 0.125 C5.87722656 0.15980469 5.87722656 0.15980469 6.8359375 0.1953125 C5.5159375 0.5253125 4.1959375 0.8553125 2.8359375 1.1953125 C2.8359375 1.8553125 2.8359375 2.5153125 2.8359375 3.1953125 C5.1459375 3.1953125 7.4559375 3.1953125 9.8359375 3.1953125 C9.8359375 2.5353125 9.8359375 1.8753125 9.8359375 1.1953125 C11.50205655 1.1525915 13.16976635 1.15467418 14.8359375 1.1953125 C16.74883368 3.10820868 15.99969577 6.61755333 16.00390625 9.22265625 C16.00723465 9.92677139 16.01056305 10.63088654 16.01399231 11.3563385 C16.01906405 12.84847356 16.02140056 14.34062 16.02124023 15.83276367 C16.02342509 18.11981857 16.04157299 20.40639003 16.06054688 22.69335938 C16.06348104 24.14062334 16.06546568 25.58788961 16.06640625 27.03515625 C16.07359177 27.72165756 16.08077728 28.40815887 16.08818054 29.11546326 C16.06476119 33.96648881 16.06476119 33.96648881 13.8359375 36.1953125 C11.12670949 36.39383352 8.54290571 36.47370727 5.8359375 36.4453125 C5.09859375 36.45304687 4.36125 36.46078125 3.6015625 36.46875 C-1.9107429 36.4486321 -1.9107429 36.4486321 -4.1640625 34.1953125 C-4.42285156 31.0625 -4.42285156 31.0625 -4.4296875 27.0703125 C-4.43160095 26.3676123 -4.4335144 25.66491211 -4.43548584 24.94091797 C-4.43684725 23.45474896 -4.43315382 21.96856805 -4.42480469 20.48242188 C-4.41410404 18.20415604 -4.42470089 15.92667873 -4.4375 13.6484375 C-4.4361784 12.20572742 -4.43361599 10.76301784 -4.4296875 9.3203125 C-4.42743164 8.00289063 -4.42517578 6.68546875 -4.42285156 5.328125 C-4.12880788 1.76853208 -3.73829609 0.33739134 0 0 Z " fill="#BBD2FB" transform="translate(46.1640625,81.8046875)"/>
<path d="M0 0 C1.43352212 0.00015908 2.86704998 0.00585132 4.30053711 0.01586914 C5.43041298 0.01799156 5.43041298 0.01799156 6.58311462 0.02015686 C8.99807646 0.02577163 11.41294687 0.03832656 13.82788086 0.05102539 C15.46134307 0.05603849 17.09480672 0.06060173 18.72827148 0.06469727 C22.74067671 0.07574585 26.75301326 0.09302033 30.76538086 0.11352539 C32.12238733 2.82753833 31.87776696 4.96198855 31.86303711 7.99633789 C31.85981445 9.16293945 31.8565918 10.32954102 31.85327148 11.53149414 C31.84070313 13.36647461 31.84070313 13.36647461 31.82788086 15.23852539 C31.82336914 16.46958008 31.81885742 17.70063477 31.81420898 18.96899414 C31.80239416 22.01721931 31.78592113 25.06534853 31.76538086 28.11352539 C31.10538086 28.11352539 30.44538086 28.11352539 29.76538086 28.11352539 C29.76538086 20.52352539 29.76538086 12.93352539 29.76538086 5.11352539 C19.20538086 5.11352539 8.64538086 5.11352539 -2.23461914 5.11352539 C-2.23461914 13.36352539 -2.23461914 21.61352539 -2.23461914 30.11352539 C2.05538086 30.44352539 6.34538086 30.77352539 10.76538086 31.11352539 C10.76538086 31.77352539 10.76538086 32.43352539 10.76538086 33.11352539 C5.81538086 33.11352539 0.86538086 33.11352539 -4.23461914 33.11352539 C-4.25753075 28.57448173 -4.27745695 24.03563737 -4.28955078 19.49658203 C-4.29459054 17.95132773 -4.30142234 16.40607823 -4.31005859 14.86083984 C-4.3221399 12.6442751 -4.32785087 10.42777321 -4.33227539 8.21118164 C-4.33743668 7.51638199 -4.34259796 6.82158234 -4.34791565 6.10572815 C-4.34811191 4.44123209 -4.29651043 2.7768704 -4.23461914 1.11352539 C-3.23461914 0.11352539 -3.23461914 0.11352539 0 0 Z " fill="#DBDCF6" transform="translate(69.234619140625,69.886474609375)"/>
<path d="M0 0 C1.21816406 0.03480469 1.21816406 0.03480469 2.4609375 0.0703125 C3.68683594 0.09738281 3.68683594 0.09738281 4.9375 0.125 C5.87722656 0.15980469 5.87722656 0.15980469 6.8359375 0.1953125 C5.5159375 0.5253125 4.1959375 0.8553125 2.8359375 1.1953125 C2.8359375 2.1853125 2.8359375 3.1753125 2.8359375 4.1953125 C4.8159375 4.1953125 6.7959375 4.1953125 8.8359375 4.1953125 C8.8359375 4.5253125 8.8359375 4.8553125 8.8359375 5.1953125 C5.2059375 5.1953125 1.5759375 5.1953125 -2.1640625 5.1953125 C-2.1640625 13.1153125 -2.1640625 21.0353125 -2.1640625 29.1953125 C3.1159375 29.1953125 8.3959375 29.1953125 13.8359375 29.1953125 C13.8359375 20.9453125 13.8359375 12.6953125 13.8359375 4.1953125 C12.5159375 4.1953125 11.1959375 4.1953125 9.8359375 4.1953125 C9.8359375 3.2053125 9.8359375 2.2153125 9.8359375 1.1953125 C11.50205655 1.1525915 13.16976635 1.15467418 14.8359375 1.1953125 C16.74883368 3.10820868 15.99969577 6.61755333 16.00390625 9.22265625 C16.00723465 9.92677139 16.01056305 10.63088654 16.01399231 11.3563385 C16.01906405 12.84847356 16.02140056 14.34062 16.02124023 15.83276367 C16.02342509 18.11981857 16.04157299 20.40639003 16.06054688 22.69335938 C16.06348104 24.14062334 16.06546568 25.58788961 16.06640625 27.03515625 C16.07359177 27.72165756 16.08077728 28.40815887 16.08818054 29.11546326 C16.06476119 33.96648881 16.06476119 33.96648881 13.8359375 36.1953125 C11.12670949 36.39383352 8.54290571 36.47370727 5.8359375 36.4453125 C5.09859375 36.45304687 4.36125 36.46078125 3.6015625 36.46875 C-1.9107429 36.4486321 -1.9107429 36.4486321 -4.1640625 34.1953125 C-4.42285156 31.0625 -4.42285156 31.0625 -4.4296875 27.0703125 C-4.43160095 26.3676123 -4.4335144 25.66491211 -4.43548584 24.94091797 C-4.43684725 23.45474896 -4.43315382 21.96856805 -4.42480469 20.48242188 C-4.41410404 18.20415604 -4.42470089 15.92667873 -4.4375 13.6484375 C-4.4361784 12.20572742 -4.43361599 10.76301784 -4.4296875 9.3203125 C-4.42743164 8.00289063 -4.42517578 6.68546875 -4.42285156 5.328125 C-4.12880788 1.76853208 -3.73829609 0.33739134 0 0 Z " fill="#DBDCE5" transform="translate(46.1640625,81.8046875)"/>
<path d="M0 0 C0.33 0 0.66 0 1 0 C1 6.93 1 13.86 1 21 C2.77375 20.95875 4.5475 20.9175 6.375 20.875 C9.3984375 20.8046875 9.3984375 20.8046875 12 21 C12.66 21.66 13.32 22.32 14 23 C15.98356483 23.71408334 17.98315437 24.38617742 20 25 C19.979375 23.865625 19.95875 22.73125 19.9375 21.5625 C20 18 20 18 21 17 C22.99958364 16.95919217 25.00045254 16.95745644 27 17 C27.495 17.99 27.495 17.99 28 19 C27.34 19 26.68 19 26 19 C26 19.66 26 20.32 26 21 C26.99 20.67 27.98 20.34 29 20 C29 24.95 29 29.9 29 35 C27.35 34.67 25.7 34.34 24 34 C24 32.02 24 30.04 24 28 C16.74 28 9.48 28 2 28 C1.67 29.98 1.34 31.96 1 34 C-1 36 -1 36 -2.87939453 36.22705078 C-3.62302246 36.21657715 -4.36665039 36.20610352 -5.1328125 36.1953125 C-5.93847656 36.18886719 -6.74414062 36.18242188 -7.57421875 36.17578125 C-8.83685547 36.15064453 -8.83685547 36.15064453 -10.125 36.125 C-11.39923828 36.11146484 -11.39923828 36.11146484 -12.69921875 36.09765625 C-14.79959884 36.07405647 -16.89983444 36.03818483 -19 36 C-19 35.67 -19 35.34 -19 35 C-13.39 35 -7.78 35 -2 35 C-0.84160957 31.52482871 -0.77198782 28.3272998 -0.68359375 24.70703125 C-0.66281265 24.00100266 -0.64203156 23.29497406 -0.62062073 22.56755066 C-0.55532509 20.31596449 -0.49633353 18.06426338 -0.4375 15.8125 C-0.39429575 14.2844934 -0.35068084 12.75649836 -0.30664062 11.22851562 C-0.19966426 7.48579438 -0.09834078 3.7429577 0 0 Z " fill="#33345E" transform="translate(62,84)"/>
<path d="M0 0 C0.80244141 0.00966797 1.60488281 0.01933594 2.43164062 0.02929688 C3.26501953 0.05443359 4.09839844 0.07957031 4.95703125 0.10546875 C6.22450195 0.12577148 6.22450195 0.12577148 7.51757812 0.14648438 C9.60183509 0.18181076 11.68576402 0.23561736 13.76953125 0.29296875 C13.76953125 0.95296875 13.76953125 1.61296875 13.76953125 2.29296875 C11.94615234 2.38384766 11.94615234 2.38384766 10.0859375 2.4765625 C8.50128897 2.56095207 6.91665423 2.64560085 5.33203125 2.73046875 C4.52958984 2.76978516 3.72714844 2.80910156 2.90039062 2.84960938 C-0.98286436 2.69839835 -0.98286436 2.69839835 -4.23046875 4.29296875 C-4.33124995 6.65695343 -4.3702009 8.99108186 -4.36328125 11.35546875 C-4.36423798 12.06195557 -4.3651947 12.76844238 -4.36618042 13.49633789 C-4.36686208 14.99267668 -4.3650088 16.48901842 -4.36083984 17.98535156 C-4.35549132 20.28327032 -4.36078526 22.58099361 -4.3671875 24.87890625 C-4.36652672 26.32942752 -4.36524555 27.77994866 -4.36328125 29.23046875 C-4.36530548 29.92213135 -4.36732971 30.61379395 -4.36941528 31.32641602 C-4.63277608 34.59032513 -4.63277608 34.59032513 -3.23046875 37.29296875 C-0.53811099 37.52975591 2.13451281 37.714949 4.83203125 37.85546875 C5.96995117 37.92024414 5.96995117 37.92024414 7.13085938 37.98632812 C9.01018563 38.09270508 10.88983369 38.19336809 12.76953125 38.29296875 C12.76953125 38.62296875 12.76953125 38.95296875 12.76953125 39.29296875 C9.81065666 39.37366533 6.85396535 39.4333154 3.89453125 39.48046875 C3.05277344 39.50560547 2.21101563 39.53074219 1.34375 39.55664062 C0.53808594 39.56630859 -0.26757812 39.57597656 -1.09765625 39.5859375 C-1.84128418 39.60164795 -2.58491211 39.6173584 -3.35107422 39.63354492 C-4.28137451 39.46495972 -4.28137451 39.46495972 -5.23046875 39.29296875 C-7.63119725 35.691876 -7.53669258 33.04857786 -7.53125 28.88671875 C-7.53553513 28.16560913 -7.53982025 27.44449951 -7.54423523 26.70153809 C-7.54997256 25.17847747 -7.55048317 23.65538946 -7.54614258 22.13232422 C-7.54298003 19.80128347 -7.56645583 17.47150907 -7.59179688 15.140625 C-7.59406968 13.66015785 -7.59477345 12.17968729 -7.59375 10.69921875 C-7.60295975 10.00227905 -7.61216949 9.30533936 -7.62165833 8.58728027 C-7.59461197 5.76151572 -7.52945022 3.7550152 -5.97216797 1.34838867 C-3.81352827 0.04031474 -2.51551702 -0.05352164 0 0 Z " fill="#31335C" transform="translate(47.23046875,79.70703125)"/>
<path d="M0 0 C1.66611905 -0.042721 3.33382885 -0.04063832 5 0 C6.67673649 1.67673649 6.12787817 3.72855076 6.13894653 5.96655273 C6.1369223 6.65821533 6.13489807 7.34987793 6.1328125 8.0625 C6.13424759 9.12223022 6.13424759 9.12223022 6.13571167 10.20336914 C6.13639333 11.69970793 6.13454005 13.19604967 6.13037109 14.69238281 C6.12502257 16.99030157 6.13031651 19.28802486 6.13671875 21.5859375 C6.13605797 23.03645877 6.1347768 24.48697991 6.1328125 25.9375 C6.13483673 26.6291626 6.13686096 27.3208252 6.13894653 28.03344727 C6.11495224 32.88504776 6.11495224 32.88504776 5 34 C2.32941149 34.14115161 -0.32432238 34.04247107 -3 34 C-2.67 32.68 -2.34 31.36 -2 30 C-5.3 29.67 -8.6 29.34 -12 29 C-12 28.67 -12 28.34 -12 28 C-6.72 28 -1.44 28 4 28 C4 19.75 4 11.5 4 3 C2.68 3 1.36 3 0 3 C0 2.01 0 1.02 0 0 Z " fill="#D3DBEB" transform="translate(56,83)"/>
<path d="M0 0 C3 -0.3125 3 -0.3125 6 0 C8 2 8 2 8.125 4.625 C8.08375 5.40875 8.0425 6.1925 8 7 C4.25 8.125 4.25 8.125 2 7 C2 9.97 2 12.94 2 16 C0.68 16 -0.64 16 -2 16 C-2 13.69 -2 11.38 -2 9 C-3.32 9 -4.64 9 -6 9 C-6 7.35 -6 5.7 -6 4 C-5.38125 3.896875 -4.7625 3.79375 -4.125 3.6875 C-1.63473516 3.12474627 -1.63473516 3.12474627 0 0 Z " fill="#EAEBF1" transform="translate(99,101)"/>
<path d="M0 0 C1.47057839 0.00031709 2.94118001 0.01164091 4.41162109 0.03173828 C5.18565277 0.03456818 5.95968445 0.03739807 6.75717163 0.04031372 C9.23329016 0.05152325 11.70904909 0.07662875 14.18505859 0.10205078 C15.86213671 0.1120796 17.53922049 0.12120562 19.21630859 0.12939453 C23.33103082 0.15146504 27.44548371 0.18599977 31.56005859 0.22705078 C31.56005859 0.55705078 31.56005859 0.88705078 31.56005859 1.22705078 C20.34005859 1.22705078 9.12005859 1.22705078 -2.43994141 1.22705078 C-2.76994141 12.44705078 -3.09994141 23.66705078 -3.43994141 35.22705078 C-3.76994141 35.22705078 -4.09994141 35.22705078 -4.43994141 35.22705078 C-4.43994141 28.29705078 -4.43994141 21.36705078 -4.43994141 14.22705078 C-5.09994141 14.22705078 -5.75994141 14.22705078 -6.43994141 14.22705078 C-6.76994141 14.88705078 -7.09994141 15.54705078 -7.43994141 16.22705078 C-9.08994141 15.89705078 -10.73994141 15.56705078 -12.43994141 15.22705078 C-12.43994141 15.88705078 -12.43994141 16.54705078 -12.43994141 17.22705078 C-14.74994141 17.22705078 -17.05994141 17.22705078 -19.43994141 17.22705078 C-19.43994141 16.56705078 -19.43994141 15.90705078 -19.43994141 15.22705078 C-12.50994141 14.23705078 -12.50994141 14.23705078 -5.43994141 13.22705078 C-5.48119141 11.45330078 -5.52244141 9.67955078 -5.56494141 7.85205078 C-5.63525391 4.82861328 -5.63525391 4.82861328 -5.43994141 2.22705078 C-3.43994141 0.22705078 -3.43994141 0.22705078 0 0 Z " fill="#535478" transform="translate(68.43994140625,67.77294921875)"/>
<path d="M0 0 C4.94790177 -0.0493651 9.89566083 -0.08570269 14.84375 -0.10986328 C16.52769466 -0.11993317 18.21162179 -0.13358988 19.89550781 -0.15087891 C22.31319501 -0.17508426 24.73065143 -0.18647296 27.1484375 -0.1953125 C27.9036972 -0.20563507 28.65895691 -0.21595764 29.43710327 -0.22659302 C31.2929398 -0.22699318 33.1481928 -0.12222716 35 0 C37.79177569 2.79177569 37.31213484 4.63183572 37.4140625 8.5390625 C37.47207031 10.49199219 37.47207031 10.49199219 37.53125 12.484375 C37.56270763 13.86457862 37.59395491 15.24478704 37.625 16.625 C37.66317934 18.01304541 37.70223105 19.40106711 37.7421875 20.7890625 C37.83672943 24.19257185 37.92227897 27.59607165 38 31 C36.68 30.67 35.36 30.34 34 30 C34 20.43 34 10.86 34 1 C22.78 1 11.56 1 0 1 C0 0.67 0 0.34 0 0 Z " fill="#232454" transform="translate(66,69)"/>
<path d="M0 0 C2.64590014 -0.02684679 5.29153096 -0.04676357 7.9375 -0.0625 C8.69224609 -0.07087891 9.44699219 -0.07925781 10.22460938 -0.08789062 C12.14994313 -0.09652441 14.07535581 -0.05224333 16 0 C17 1 17 1 17.11352539 3.50024414 C17.10828857 4.58426514 17.10305176 5.66828613 17.09765625 6.78515625 C17.09443359 7.95498047 17.09121094 9.12480469 17.08789062 10.33007812 C17.07951172 11.56177734 17.07113281 12.79347656 17.0625 14.0625 C17.05798828 15.29806641 17.05347656 16.53363281 17.04882812 17.80664062 C17.03699608 20.87114117 17.02051173 23.93554721 17 27 C16.34 27 15.68 27 15 27 C15 19.08 15 11.16 15 3 C10.05 3 5.1 3 0 3 C0 2.01 0 1.02 0 0 Z " fill="#EFEFF5" transform="translate(84,71)"/>
<path d="M0 0 C0.66 0 1.32 0 2 0 C2 6.93 2 13.86 2 21 C7.61 21 13.22 21 19 21 C19.66 19.68 20.32 18.36 21 17 C22.98 17 24.96 17 27 17 C25 18 23 19 21 20 C21 22.31 21 24.62 21 27 C20.34 27.33 19.68 27.66 19 28 C19 27.34 19 26.68 19 26 C18.21625 26.04125 17.4325 26.0825 16.625 26.125 C14 26 14 26 12 24 C8.37 23.67 4.74 23.34 1 23 C0.67 15.41 0.34 7.82 0 0 Z " fill="#2B2D5B" transform="translate(62,82)"/>
<path d="M0 0 C1.4540625 0.0309375 1.4540625 0.0309375 2.9375 0.0625 C3.2675 0.7225 3.5975 1.3825 3.9375 2.0625 C3.2775 2.0625 2.6175 2.0625 1.9375 2.0625 C1.9375 2.7225 1.9375 3.3825 1.9375 4.0625 C2.9275 3.7325 3.9175 3.4025 4.9375 3.0625 C4.9375 7.3525 4.9375 11.6425 4.9375 16.0625 C3.9475 16.0625 2.9575 16.0625 1.9375 16.0625 C1.9375 13.0925 1.9375 10.1225 1.9375 7.0625 C0.7309375 7.3409375 0.7309375 7.3409375 -0.5 7.625 C-1.345625 7.769375 -2.19125 7.91375 -3.0625 8.0625 C-4.0625 7.0625 -4.0625 7.0625 -4.1875 4.0625 C-4.02164894 0.08207447 -4.02164894 0.08207447 0 0 Z " fill="#E6E7EE" transform="translate(86.0625,100.9375)"/>
<path d="M0 0 C1.62463842 -0.05395478 3.24978541 -0.09277195 4.875 -0.125 C5.77992187 -0.14820312 6.68484375 -0.17140625 7.6171875 -0.1953125 C10 0 10 0 12 2 C14.57061311 2.64767793 14.57061311 2.64767793 17 3 C17 3.66 17 4.32 17 5 C11.39 5 5.78 5 0 5 C0 3.35 0 1.7 0 0 Z " fill="#CDCFDC" transform="translate(64,105)"/>
<path d="M0 0 C0.33 0 0.66 0 1 0 C1.21746617 4.48338319 1.41423715 8.96705805 1.59204102 13.45214844 C1.65539303 14.9771336 1.72435294 16.5018967 1.79907227 18.02636719 C1.90562523 20.22035709 1.99185001 22.41436036 2.07421875 24.609375 C2.11157639 25.2886908 2.14893402 25.96800659 2.18742371 26.66790771 C2.282578 29.6773487 2.13554399 31.73360804 0.75976562 34.4375 C-1.40780827 36.36209392 -2.36521622 36.47190876 -5.23046875 36.390625 C-6.43413086 36.37128906 -6.43413086 36.37128906 -7.66210938 36.3515625 C-8.49548828 36.31804687 -9.32886719 36.28453125 -10.1875 36.25 C-11.4549707 36.22292969 -11.4549707 36.22292969 -12.74804688 36.1953125 C-14.83251573 36.14820586 -16.91640144 36.07646233 -19 36 C-19 35.67 -19 35.34 -19 35 C-13.39 35 -7.78 35 -2 35 C-0.84160957 31.52482871 -0.77198782 28.3272998 -0.68359375 24.70703125 C-0.66281265 24.00100266 -0.64203156 23.29497406 -0.62062073 22.56755066 C-0.55532509 20.31596449 -0.49633353 18.06426338 -0.4375 15.8125 C-0.39429575 14.2844934 -0.35068084 12.75649836 -0.30664062 11.22851562 C-0.19966426 7.48579438 -0.09834078 3.7429577 0 0 Z " fill="#4F4F76" transform="translate(62,84)"/>
<path d="M0 0 C0.33 0 0.66 0 1 0 C1 4.29 1 8.58 1 13 C-1.64 13 -4.28 13 -7 13 C-6.67 11.68 -6.34 10.36 -6 9 C-9.3 8.67 -12.6 8.34 -16 8 C-16 7.67 -16 7.34 -16 7 C-10.72 7 -5.44 7 0 7 C0 4.69 0 2.38 0 0 Z " fill="#F0F3FA" transform="translate(60,104)"/>
<path d="M0 0 C0 0.66 0 1.32 0 2 C1.32 2.33 2.64 2.66 4 3 C2.68 3 1.36 3 0 3 C0.33 7.62 0.66 12.24 1 17 C0.34 17.33 -0.32 17.66 -1 18 C-1.99 17.34 -2.98 16.68 -4 16 C-3.01 16 -2.02 16 -1 16 C-1.33 12.04 -1.66 8.08 -2 4 C-2.66 4 -3.32 4 -4 4 C-3.67 3.01 -3.34 2.02 -3 1 C-4.32 0.34 -5.64 -0.32 -7 -1 C-3.51418144 -2.2020064 -3.32007656 -2.21338437 0 0 Z " fill="#4B4E78" transform="translate(92,101)"/>
<path d="M0 0 C4.95 0 9.9 0 15 0 C15.33 0.99 15.66 1.98 16 3 C10.72 3 5.44 3 0 3 C0 2.01 0 1.02 0 0 Z " fill="#FBFBFB" transform="translate(66,71)"/>
<path d="M0 0 C0.99 0.33 1.98 0.66 3 1 C2.67 1.99 2.34 2.98 2 4 C1.67 4 1.34 4 1 4 C0.67 7.63 0.34 11.26 0 15 C-0.33 15 -0.66 15 -1 15 C-1 12.69 -1 10.38 -1 8 C-2.32 8 -3.64 8 -5 8 C-5 6.35 -5 4.7 -5 3 C-4.360625 2.87625 -3.72125 2.7525 -3.0625 2.625 C-2.0415625 2.315625 -2.0415625 2.315625 -1 2 C-0.67 1.34 -0.34 0.68 0 0 Z " fill="#A2A4BB" transform="translate(98,102)"/>
<path d="M0 0 C11.22 0 22.44 0 34 0 C34 0.33 34 0.66 34 1 C28.72 1 23.44 1 18 1 C18 1.66 18 2.32 18 3 C17.01 3 16.02 3 15 3 C15 2.34 15 1.68 15 1 C10.05 1 5.1 1 0 1 C0 0.67 0 0.34 0 0 Z " fill="#B0B3C7" transform="translate(66,70)"/>
<path d="M0 0 C1.32 0 2.64 0 4 0 C4 0.99 4 1.98 4 3 C6.97 3.495 6.97 3.495 10 4 C10 4.33 10 4.66 10 5 C4.72 5 -0.56 5 -6 5 C-6.33 4.34 -6.66 3.68 -7 3 C-4.69 3 -2.38 3 0 3 C0 2.01 0 1.02 0 0 Z " fill="#B2B4D4" transform="translate(50,113)"/>
<path d="M0 0 C0.33 0.66 0.66 1.32 1 2 C-0.32 2 -1.64 2 -3 2 C-3 3.65 -3 5.3 -3 7 C-1.68 7 -0.36 7 1 7 C1.12375 8.11375 1.2475 9.2275 1.375 10.375 C1.6465813 14.03103677 1.6465813 14.03103677 4 16 C0.125 15.125 0.125 15.125 -1 14 C-1.04063832 12.33382885 -1.042721 10.66611905 -1 9 C-1.99 9 -2.98 9 -4 9 C-4 6.36 -4 3.72 -4 1 C-2.68 0.67 -1.36 0.34 0 0 Z " fill="#262854" transform="translate(96,103)"/>
<path d="M0 0 C4.82360189 -0.19294408 8.49646738 0.24252386 13 2 C12.67 3.32 12.34 4.64 12 6 C8 6 8 6 6 4.125 C5.34 3.42375 4.68 2.7225 4 2 C1.86690808 0.76487921 1.86690808 0.76487921 0 0 Z " fill="#BBB0EE" transform="translate(84,97)"/>
<path d="M0 0 C1.23556641 0.01740234 1.23556641 0.01740234 2.49609375 0.03515625 C3.32238281 0.04417969 4.14867187 0.05320312 5 0.0625 C5.63808594 0.07410156 6.27617188 0.08570312 6.93359375 0.09765625 C5.61359375 0.42765625 4.29359375 0.75765625 2.93359375 1.09765625 C2.93359375 2.08765625 2.93359375 3.07765625 2.93359375 4.09765625 C4.91359375 4.09765625 6.89359375 4.09765625 8.93359375 4.09765625 C8.93359375 4.42765625 8.93359375 4.75765625 8.93359375 5.09765625 C5.30359375 5.09765625 1.67359375 5.09765625 -2.06640625 5.09765625 C-2.39640625 3.77765625 -2.72640625 2.45765625 -3.06640625 1.09765625 C-2.06640625 0.09765625 -2.06640625 0.09765625 0 0 Z " fill="#EAEDF4" transform="translate(46.06640625,81.90234375)"/>
<path d="M0 0 C2.875 -0.125 2.875 -0.125 6 0 C8 2 8 2 8.125 4.625 C8.08375 5.40875 8.0425 6.1925 8 7 C7.67 6.34 7.34 5.68 7 5 C5.02 5 3.04 5 1 5 C1.33 4.01 1.66 3.02 2 2 C1.34 2 0.68 2 0 2 C0 1.34 0 0.68 0 0 Z " fill="#D0D1DD" transform="translate(99,101)"/>
<path d="M0 0 C0.33 0 0.66 0 1 0 C1 3.3 1 6.6 1 10 C-4.94 9.67 -10.88 9.34 -17 9 C-17 8.67 -17 8.34 -17 8 C-12.05 8 -7.1 8 -2 8 C-1.67 6.68 -1.34 5.36 -1 4 C-0.66666667 2.66666667 -0.33333333 1.33333333 0 0 Z " fill="#D8D9E0" transform="translate(62,71)"/>
<path d="M0 0 C1.32 0.66 2.64 1.32 4 2 C4 2.66 4 3.32 4 4 C3.34 4 2.68 4 2 4 C2.061875 5.423125 2.061875 5.423125 2.125 6.875 C2 10 2 10 0 12 C-2.125 11.625 -2.125 11.625 -4 11 C-3.67 10.34 -3.34 9.68 -3 9 C-2.01 9 -1.02 9 0 9 C0 6.03 0 3.06 0 0 Z " fill="#474871" transform="translate(101,108)"/>
<path d="M0 0 C1.4540625 0.0309375 1.4540625 0.0309375 2.9375 0.0625 C3.2675 0.7225 3.5975 1.3825 3.9375 2.0625 C2.9475 2.0625 1.9575 2.0625 0.9375 2.0625 C0.6075 2.7225 0.2775 3.3825 -0.0625 4.0625 C-1.0525 4.3925 -2.0425 4.7225 -3.0625 5.0625 C-3.3925 5.7225 -3.7225 6.3825 -4.0625 7.0625 C-4.10504356 5.06295254 -4.10330783 3.06208364 -4.0625 1.0625 C-3.0625 0.0625 -3.0625 0.0625 0 0 Z " fill="#CCCEDB" transform="translate(86.0625,100.9375)"/>
<path d="M0 0 C0.99 0.33 1.98 0.66 3 1 C5.73289293 1.22797562 8.45042204 1.41668187 11.1875 1.5625 C11.93708984 1.60568359 12.68667969 1.64886719 13.45898438 1.69335938 C15.30578375 1.79922685 17.15286834 1.9000976 19 2 C19 2.33 19 2.66 19 3 C13.06 3 7.12 3 1 3 C0.67 2.01 0.34 1.02 0 0 Z " fill="#1E1F52" transform="translate(41,116)"/>
<path d="M0 0 C0 0.66 0 1.32 0 2 C1.32 2.33 2.64 2.66 4 3 C1.36 3.33 -1.28 3.66 -4 4 C-3.67 3.01 -3.34 2.02 -3 1 C-4.32 0.34 -5.64 -0.32 -7 -1 C-3.51418144 -2.2020064 -3.32007656 -2.21338437 0 0 Z " fill="#565882" transform="translate(92,101)"/>
<path d="M0 0 C-1.32 0.33 -2.64 0.66 -4 1 C-4 1.66 -4 2.32 -4 3 C-6.31 3 -8.62 3 -11 3 C-11 2.34 -11 1.68 -11 1 C-7.32589215 -0.17571451 -3.83070817 -0.07366746 0 0 Z " fill="#838598" transform="translate(60,82)"/>
<path d="M0 0 C1.32 0 2.64 0 4 0 C4 1.65 4 3.3 4 5 C2.68 5 1.36 5 0 5 C0 3.35 0 1.7 0 0 Z " fill="#7C7D9C" transform="translate(93,105)"/>
<path d="M0 0 C-1.49097658 3.7952131 -3.75700849 5.61042731 -7 8 C-7 6.68 -7 5.36 -7 4 C-2.77777778 0 -2.77777778 0 0 0 Z " fill="#EBE8EA" transform="translate(110,108)"/>
<path d="M0 0 C2.64 0 5.28 0 8 0 C7.01 1.485 7.01 1.485 6 3 C3.5625 2.625 3.5625 2.625 1 2 C0.67 1.34 0.34 0.68 0 0 Z " fill="#FBEDE6" transform="translate(48,120)"/>
<path d="M0 0 C1.32 0 2.64 0 4 0 C4 1.98 4 3.96 4 6 C3.01 5.67 2.02 5.34 1 5 C0.67 3.35 0.34 1.7 0 0 Z " fill="#94BDFB" transform="translate(56,87)"/>
</svg>
