<?xml version="1.0" encoding="UTF-8"?>
<svg version="1.1" xmlns="http://www.w3.org/2000/svg" width="151" height="178">
<path d="M0 0 C49.83 0 99.66 0 151 0 C151 58.74 151 117.48 151 178 C101.17 178 51.34 178 0 178 C0 119.26 0 60.52 0 0 Z " fill="#FBFDFD" transform="translate(0,0)"/>
<path d="M0 0 C4.3 0.3 4.3 0.3 6 2 C6.14115161 4.67058851 6.04247107 7.32432238 6 10 C9.6564328 11.21881093 12.16289922 11.4712229 16 11 C18.49540371 8.13384514 18.49540371 8.13384514 20 5 C22.475 5.495 22.475 5.495 25 6 C26.73955334 12.43013467 27.24991456 18.34949576 27 25 C27.66 25 28.32 25 29 25 C29.19055103 26.55767902 29.32553027 28.12220885 29.4375 29.6875 C29.51871094 30.55761719 29.59992188 31.42773438 29.68359375 32.32421875 C28.80470474 35.76444144 27.03982367 36.98882311 24.16511536 38.94099426 C20.17237238 40.89393303 16.15625764 40.67158111 11.7890625 40.59375 C10.33770401 40.59381042 10.33770401 40.59381042 8.85702515 40.59387207 C6.81802855 40.58853067 4.77903151 40.57100733 2.74023438 40.54199219 C-0.35872285 40.50021941 -3.4554966 40.50092322 -6.5546875 40.5078125 C-8.54428575 40.49731531 -10.53387291 40.48437437 -12.5234375 40.46875 C-13.89730118 40.46844788 -13.89730118 40.46844788 -15.29891968 40.46813965 C-22.36174885 40.34009148 -29.06488148 39.4459321 -34.625 34.8125 C-36.51531589 30.94594477 -36.34233893 28.05351031 -35 24 C-32.26874684 20.69973576 -28.02981468 19.96180875 -24.0234375 18.84375 C-21.64804211 18.07274126 -21.64804211 18.07274126 -20 15 C-18.68 15 -17.36 15 -16 15 C-15.896875 14.38125 -15.79375 13.7625 -15.6875 13.125 C-15 11 -15 11 -12 9 C-11.01 9 -10.02 9 -9 9 C-9 8.01 -9 7.02 -9 6 C-8.2575 5.7525 -7.515 5.505 -6.75 5.25 C-3.89000201 4.16715114 -3.89000201 4.16715114 -2 1.8125 C-1.34 1.214375 -0.68 0.61625 0 0 Z " fill="#E1E4F6" transform="translate(81,85)"/>
<path d="M0 0 C4.3 0.3 4.3 0.3 6 2 C6.14115161 4.67058851 6.04247107 7.32432238 6 10 C9.6564328 11.21881093 12.16289922 11.4712229 16 11 C18.49540371 8.13384514 18.49540371 8.13384514 20 5 C22.475 5.495 22.475 5.495 25 6 C26.73955334 12.43013467 27.24991456 18.34949576 27 25 C27.66 25 28.32 25 29 25 C29.19055103 26.55767902 29.32553027 28.12220885 29.4375 29.6875 C29.51871094 30.55761719 29.59992188 31.42773438 29.68359375 32.32421875 C28.80470474 35.76444144 27.03982367 36.98882311 24.16511536 38.94099426 C20.17237238 40.89393303 16.15625764 40.67158111 11.7890625 40.59375 C10.33770401 40.59381042 10.33770401 40.59381042 8.85702515 40.59387207 C6.81802855 40.58853067 4.77903151 40.57100733 2.74023438 40.54199219 C-0.35872285 40.50021941 -3.4554966 40.50092322 -6.5546875 40.5078125 C-8.54428575 40.49731531 -10.53387291 40.48437437 -12.5234375 40.46875 C-13.89730118 40.46844788 -13.89730118 40.46844788 -15.29891968 40.46813965 C-22.36174885 40.34009148 -29.06488148 39.4459321 -34.625 34.8125 C-36.51531589 30.94594477 -36.34233893 28.05351031 -35 24 C-32.26874684 20.69973576 -28.02981468 19.96180875 -24.0234375 18.84375 C-21.64804211 18.07274126 -21.64804211 18.07274126 -20 15 C-18.68 15 -17.36 15 -16 15 C-15.896875 14.38125 -15.79375 13.7625 -15.6875 13.125 C-15 11 -15 11 -12 9 C-11.01 9 -10.02 9 -9 9 C-9 8.01 -9 7.02 -9 6 C-8.2575 5.7525 -7.515 5.505 -6.75 5.25 C-3.89000201 4.16715114 -3.89000201 4.16715114 -2 1.8125 C-1.34 1.214375 -0.68 0.61625 0 0 Z M1 2 C-0.65 3.98 -2.3 5.96 -4 8 C-3.34 8 -2.68 8 -2 8 C-2 9.65 -2 11.3 -2 13 C-2.8971875 12.2265625 -2.8971875 12.2265625 -3.8125 11.4375 C-4.534375 10.963125 -5.25625 10.48875 -6 10 C-6.99 10.33 -7.98 10.66 -9 11 C-8.01 12.65 -7.02 14.3 -6 16 C-6.5775 15.484375 -7.155 14.96875 -7.75 14.4375 C-9.87827523 12.73494807 -9.87827523 12.73494807 -12.25 13.3125 C-13.11625 13.6528125 -13.11625 13.6528125 -14 14 C-12.68 14.66 -11.36 15.32 -10 16 C-10 16.66 -10 17.32 -10 18 C-10.99 18 -11.98 18 -13 18 C-13 17.34 -13 16.68 -13 16 C-14.65 16.33 -16.3 16.66 -18 17 C-18 17.66 -18 18.32 -18 19 C-17.01 19 -16.02 19 -15 19 C-14.67 19.99 -14.34 20.98 -14 22 C-14.556875 21.649375 -15.11375 21.29875 -15.6875 20.9375 C-18.59885163 19.75722231 -20.02993989 20.08613535 -23 21 C-23.99 21.66 -24.98 22.32 -26 23 C-28.32873375 23.68255989 -30.66182791 24.35050775 -33 25 C-34.30323831 26.10075495 -34.30323831 26.10075495 -34.375 28.8125 C-34.31176701 32.13590341 -34.31176701 32.13590341 -31.8125 34.25 C-25.73029427 38.03448357 -20.86665547 38.30757011 -13.84375 38.30078125 C-12.86386108 38.30506638 -11.88397217 38.3093515 -10.87438965 38.31376648 C-8.80672985 38.31949854 -6.7390499 38.32001833 -4.67138672 38.31567383 C-1.51104344 38.31251105 1.64836592 38.33599712 4.80859375 38.36132812 C6.82031132 38.36360097 8.8320314 38.36430468 10.84375 38.36328125 C11.78657837 38.372491 12.72940674 38.38170074 13.70080566 38.39118958 C18.59085102 38.35674989 22.07034511 38.26625191 26 35 C27.35439668 32.29120665 27.06501451 29.99066732 27 27 C26.34 27 25.68 27 25 27 C23.98133771 28.65532623 22.98189187 30.32260138 22 32 C18.93466836 33.53266582 15.73245728 33.10276471 12.375 33.0625 C11.66859375 33.05798828 10.9621875 33.05347656 10.234375 33.04882812 C8.48954725 33.03703875 6.744763 33.01910324 5 33 C4.34 31.35 3.68 29.7 3 28 C4.25296875 27.95101562 5.5059375 27.90203125 6.796875 27.8515625 C8.44793821 27.77651417 10.09897881 27.70096723 11.75 27.625 C12.575 27.5940625 13.4 27.563125 14.25 27.53125 C15.44882813 27.47324219 15.44882813 27.47324219 16.671875 27.4140625 C17.77160645 27.36693115 17.77160645 27.36693115 18.89355469 27.31884766 C21.24922918 26.96227477 22.93450591 26.16337117 25 25 C25.20190089 18.64012196 24.6277833 13.14778871 23 7 C20.9837767 7.71563266 20.9837767 7.71563266 19 9 C18.19471111 11.05000871 18.19471111 11.05000871 18 13 C13.7136557 13.2521379 10.02890478 13.35696696 5.9375 11.9375 C4 10 4 10 3.6875 6.3125 C3.790625 5.219375 3.89375 4.12625 4 3 C3.01 2.67 2.02 2.34 1 2 Z " fill="#323861" transform="translate(81,85)"/>
<path d="M0 0 C0.99 0.33 1.98 0.66 3 1 C2.896875 2.093125 2.79375 3.18625 2.6875 4.3125 C2.6024291 8.01890825 2.6024291 8.01890825 4.9375 9.9375 C9.02890478 11.35696696 12.7136557 11.2521379 17 11 C17.268125 10.195625 17.53625 9.39125 17.8125 8.5625 C18.204375 7.716875 18.59625 6.87125 19 6 C19.99 5.67 20.98 5.34 22 5 C22 7.64 22 10.28 22 13 C20.02 13.33 18.04 13.66 16 14 C15.67 14.99 15.34 15.98 15 17 C6.76434583 17.47513389 6.76434583 17.47513389 3.6875 15.5625 C3.130625 15.046875 2.57375 14.53125 2 14 C-0.14733927 13.29485154 -0.14733927 13.29485154 -2 13 C0.54604597 16.52381687 0.54604597 16.52381687 4 19 C4 19.66 4 20.32 4 21 C2.3125 21.75 2.3125 21.75 0 22 C-2.75 20.0625 -2.75 20.0625 -5 18 C-3.5 19.3125 -3.5 19.3125 -2 21 C-2 21.99 -2 22.98 -2 24 C-4 23 -6 22 -8 21 C-8 20.34 -8 19.68 -8 19 C-8.66 19 -9.32 19 -10 19 C-8.08864614 22.53600465 -6.37357234 24.78972846 -3 27 C-12.79941948 31.3232733 -23.87752541 31.11460757 -34 28 C-31.36031046 22.72062092 -29.64508564 21.06147501 -24 19 C-20.9244201 18.07017352 -19.67552981 17.72613656 -16.6875 18.9375 C-16.130625 19.288125 -15.57375 19.63875 -15 20 C-15.66 19.01 -16.32 18.02 -17 17 C-17.66 17 -18.32 17 -19 17 C-19 16.34 -19 15.68 -19 15 C-17.35 14.67 -15.7 14.34 -14 14 C-14 14.66 -14 15.32 -14 16 C-13.01 16 -12.02 16 -11 16 C-11 15.34 -11 14.68 -11 14 C-12.32 13.34 -13.64 12.68 -15 12 C-13.25 11.3125 -13.25 11.3125 -11 11 C-8.75 12.4375 -8.75 12.4375 -7 14 C-7.99 12.35 -8.98 10.7 -10 9 C-6 9 -6 9 -3 11 C-3 9.35 -3 7.7 -3 6 C-3.66 5.67 -4.32 5.34 -5 5 C-3.35 3.35 -1.7 1.7 0 0 Z " fill="#EEEEF4" transform="translate(82,87)"/>
<path d="M0 0 C0.66 0 1.32 0 2 0 C2.49046322 5.39509537 2.49046322 5.39509537 0.125 8.3125 C-2.86175547 10.68433523 -4.49013885 11.12922946 -8.23095703 11.17700195 C-9.10591827 11.18983719 -9.98087952 11.20267242 -10.88235474 11.21589661 C-11.8312558 11.22328354 -12.78015686 11.23067047 -13.7578125 11.23828125 C-14.73483124 11.246353 -15.71184998 11.25442474 -16.71847534 11.26274109 C-18.79146547 11.27659049 -20.86447849 11.2873088 -22.9375 11.29516602 C-26.09159399 11.31231833 -29.24462331 11.35618982 -32.3984375 11.40039062 C-34.4140548 11.41052293 -36.42968101 11.41903735 -38.4453125 11.42578125 C-39.85044601 11.45204338 -39.85044601 11.45204338 -41.28396606 11.47883606 C-47.59884619 11.45816804 -51.55352414 10.21764832 -57 7 C-57 6.34 -57 5.68 -57 5 C-55.94256592 5.00785522 -55.94256592 5.00785522 -54.86376953 5.01586914 C-51.61752237 5.03687271 -48.3712896 5.04973369 -45.125 5.0625 C-44.01640625 5.07087891 -42.9078125 5.07925781 -41.765625 5.08789062 C-35.72879399 5.10564601 -29.89925873 4.89875412 -23.92138672 4.02124023 C-23.2873291 4.01423096 -22.65327148 4.00722168 -22 4 C-21.34 4.66 -20.68 5.32 -20 6 C-17.49262823 6.2260745 -15.13153192 6.32436805 -12.625 6.3125 C-11.61566406 6.33666992 -11.61566406 6.33666992 -10.5859375 6.36132812 C-7.48849773 6.36437679 -5.31852753 6.1757571 -2.5859375 4.66796875 C-0.75813709 2.98196148 -0.75813709 2.98196148 0 0 Z " fill="#E8E9F0" transform="translate(106,112)"/>
<path d="M0 0 C0.99 0 1.98 0 3 0 C3.268125 0.763125 3.53625 1.52625 3.8125 2.3125 C5.53147977 6.20282263 7.48285348 7.65523565 11 10 C1.20058052 14.3232733 -9.87752541 14.11460757 -20 11 C-17.35931202 5.71862404 -15.64469938 4.06571977 -10 2 C-5.92660743 0.73918801 -3.82815473 1.14061056 0 3 C0 2.01 0 1.02 0 0 Z " fill="#F6F7FA" transform="translate(68,104)"/>
<path d="M0 0 C4.3 0.3 4.3 0.3 6 2 C6.14115161 4.67058851 6.04247107 7.32432238 6 10 C5.01 10 4.02 10 3 10 C3 7.69 3 5.38 3 3 C0.53199953 4.15173355 -1.04783565 5.04783565 -3 7 C-2.505 7.495 -2.505 7.495 -2 8 C-1.95936168 9.66617115 -1.957279 11.33388095 -2 13 C-3.98 12.34 -5.96 11.68 -8 11 C-7.34 12.65 -6.68 14.3 -6 16 C-6.598125 15.67 -7.19625 15.34 -7.8125 15 C-10.05386471 13.79212012 -10.05386471 13.79212012 -13 14 C-12.01 14.66 -11.02 15.32 -10 16 C-10 16.66 -10 17.32 -10 18 C-10.99 18 -11.98 18 -13 18 C-13 17.34 -13 16.68 -13 16 C-14.65 16.33 -16.3 16.66 -18 17 C-18 17.66 -18 18.32 -18 19 C-17.01 18.67 -16.02 18.34 -15 18 C-14.67 19.32 -14.34 20.64 -14 22 C-15.051875 21.773125 -16.10375 21.54625 -17.1875 21.3125 C-21.57034323 20.95325056 -22.47134862 21.61816032 -26 24 C-28.31691454 24.72166191 -30.64848923 25.40059529 -33 26 C-33.50169415 28.83073436 -33.50169415 28.83073436 -33 32 C-30.06425129 34.41383783 -27.59857289 35.8004757 -24 37 C-24 37.66 -24 38.32 -24 39 C-29.36443913 38.6257368 -31.49646001 37.0040457 -35 33 C-35.33 32.67 -35.66 32.34 -36 32 C-35.6509636 24.78658101 -35.6509636 24.78658101 -33.5 22.1875 C-30.42700447 20.72782712 -27.29768414 19.75749325 -24.0234375 18.84375 C-21.64804211 18.07274126 -21.64804211 18.07274126 -20 15 C-18.68 15 -17.36 15 -16 15 C-15.896875 14.38125 -15.79375 13.7625 -15.6875 13.125 C-15 11 -15 11 -12 9 C-11.01 9 -10.02 9 -9 9 C-9 8.01 -9 7.02 -9 6 C-8.2575 5.7525 -7.515 5.505 -6.75 5.25 C-3.89000201 4.16715114 -3.89000201 4.16715114 -2 1.8125 C-1.34 1.214375 -0.68 0.61625 0 0 Z " fill="#343763" transform="translate(81,85)"/>
<path d="M0 0 C0.33 0 0.66 0 1 0 C2.03590199 5.05002222 2.10251672 9.87416389 2 15 C-1.34939881 17.02558881 -3.86962551 17.21738987 -7.75 17.125 C-8.73484375 17.10695313 -9.7196875 17.08890625 -10.734375 17.0703125 C-11.48203125 17.04710938 -12.2296875 17.02390625 -13 17 C-12.3125 12.2734375 -12.3125 12.2734375 -9.5 9.8125 C-8.675 9.214375 -7.85 8.61625 -7 8 C-6.67 7.34 -6.34 6.68 -6 6 C-2.9375 5.375 -2.9375 5.375 0 5 C0 3.35 0 1.7 0 0 Z " fill="#BDC7EF" transform="translate(104,95)"/>
<path d="M0 0 C0.59756607 0.21275574 1.19513214 0.42551147 1.81080627 0.64471436 C8.26160701 2.78202385 13.94815331 3.41861275 20.71484375 3.328125 C21.69240128 3.32625183 22.6699588 3.32437866 23.67713928 3.32244873 C25.72335267 3.31577724 27.76955439 3.301962 29.81567383 3.28125 C32.95340778 3.24984076 36.09063933 3.24024613 39.22851562 3.234375 C41.22396449 3.22521354 43.21940824 3.21484051 45.21484375 3.203125 C46.62104225 3.19675018 46.62104225 3.19675018 48.0556488 3.19024658 C48.92407913 3.18063904 49.79250946 3.17103149 50.68725586 3.16113281 C51.83115028 3.15089081 51.83115028 3.15089081 52.99815369 3.14044189 C55.20845634 3.068881 55.20845634 3.068881 58 2 C58 3.32 58 4.64 58 6 C57.15703369 5.99476318 56.31406738 5.98952637 55.44555664 5.98413086 C52.32772064 5.96712174 49.20990823 5.95456594 46.09204102 5.94506836 C44.74079614 5.94002943 43.38955674 5.93319823 42.03833008 5.92456055 C40.09979566 5.91247581 38.161222 5.90730172 36.22265625 5.90234375 C35.05484619 5.89710693 33.88703613 5.89187012 32.68383789 5.88647461 C30.08108449 5.69338505 30.08108449 5.69338505 29 7 C19.76715809 8.77485699 9.90899004 7.96966335 1 5 C0.67 3.35 0.34 1.7 0 0 Z " fill="#E2F4F6" transform="translate(48,121)"/>
<path d="M0 0 C0.99 0 1.98 0 3 0 C2.67 1.32 2.34 2.64 2 4 C2.99 3.67 3.98 3.34 5 3 C5.33 4.32 5.66 5.64 6 7 C4.4221875 6.6596875 4.4221875 6.6596875 2.8125 6.3125 C-1.57034323 5.95325056 -2.47134862 6.61816032 -6 9 C-8.31691454 9.72166191 -10.64848923 10.40059529 -13 11 C-13.50169415 13.83073436 -13.50169415 13.83073436 -13 17 C-10.06425129 19.41383783 -7.59857289 20.8004757 -4 22 C-4 22.66 -4 23.32 -4 24 C-9.36443913 23.6257368 -11.49646001 22.0040457 -15 18 C-15.33 17.67 -15.66 17.34 -16 17 C-15.6509636 9.78658101 -15.6509636 9.78658101 -13.5 7.1875 C-10.42700447 5.72782712 -7.29768414 4.75749325 -4.0234375 3.84375 C-1.64804211 3.07274126 -1.64804211 3.07274126 0 0 Z " fill="#46486E" transform="translate(61,100)"/>
<path d="M0 0 C-1.36983503 3.16115776 -1.9890638 3.9927092 -5 6 C-7.60245498 6.14221065 -10.09117684 6.18802932 -12.6875 6.125 C-13.7403418 6.11146484 -13.7403418 6.11146484 -14.81445312 6.09765625 C-16.54311525 6.07413704 -18.27160145 6.03826713 -20 6 C-20.66 4.68 -21.32 3.36 -22 2 C-18.5139014 0.83796713 -15.19791385 0.65011768 -11.5625 0.4375 C-10.89412109 0.39431641 -10.22574219 0.35113281 -9.53710938 0.30664062 C-6.34780217 0.10750648 -3.19728438 0 0 0 Z " fill="#4572F5" transform="translate(106,113)"/>
<path d="M0 0 C0.66 0 1.32 0 2 0 C1 2 0 4 -1 6 C8.11752366 7.40269595 16.97328965 7.77220414 25.953125 5.4453125 C29.01940106 4.77822191 31.87369831 4.86696589 35 5 C35 5.66 35 6.32 35 7 C27.09979974 8.98998908 19.55779864 9.27383781 11.4375 9.1875 C10.25091797 9.18685547 9.06433594 9.18621094 7.84179688 9.18554688 C-0.85933 9.14067 -0.85933 9.14067 -2 8 C-2.1875 5.0625 -2.1875 5.0625 -2 2 C-1.34 1.34 -0.68 0.68 0 0 Z " fill="#AEB5D1" transform="translate(49,109)"/>
<path d="M0 0 C0.495 1.98 0.495 1.98 1 4 C-14.18 3.67 -29.36 3.34 -45 3 C-45 2.67 -45 2.34 -45 2 C-43.70787598 1.97494385 -42.41575195 1.9498877 -41.08447266 1.92407227 C-36.30230344 1.83008376 -31.52028238 1.72984234 -26.73828125 1.62768555 C-24.66637634 1.58430423 -22.59443493 1.54263154 -20.52246094 1.50268555 C-17.54871609 1.44506035 -14.57515552 1.38134375 -11.6015625 1.31640625 C-10.20618759 1.29133751 -10.20618759 1.29133751 -8.78262329 1.26576233 C-7.92188202 1.24581711 -7.06114075 1.22587189 -6.17431641 1.20532227 C-5.03514267 1.18200584 -5.03514267 1.18200584 -3.87295532 1.15821838 C-1.90884279 1.10872873 -1.90884279 1.10872873 0 0 Z " fill="#CEE1E9" transform="translate(105,123)"/>
<path d="M0 0 C0.99 0.33 1.98 0.66 3 1 C2.67 3.31 2.34 5.62 2 8 C1.01 8 0.02 8 -1 8 C-1.99 9.485 -1.99 9.485 -3 11 C-3 9.35 -3 7.7 -3 6 C-3.66 5.67 -4.32 5.34 -5 5 C-3.35 3.35 -1.7 1.7 0 0 Z " fill="#E7E8EE" transform="translate(82,87)"/>
<path d="M0 0 C0.99 0 1.98 0 3 0 C3 0.66 3 1.32 3 2 C7.95 2 12.9 2 18 2 C17.67 2.66 17.34 3.32 17 4 C12.05 4 7.1 4 2 4 C1.34 2.68 0.68 1.36 0 0 Z " fill="#5378FA" transform="translate(84,115)"/>
<path d="M0 0 C0.33 0 0.66 0 1 0 C1.165 1.0725 1.33 2.145 1.5 3.25 C2.20499298 5.84374281 2.69138137 6.78144762 4.9140625 8.35546875 C6.91719422 9.3358 8.91193558 10.21818983 11 11 C11 11.66 11 12.32 11 13 C5.63556087 12.6257368 3.50353999 11.0040457 0 7 C-0.33 6.67 -0.66 6.34 -1 6 C-1.125 3.5 -1.125 3.5 -1 1 C-0.67 0.67 -0.34 0.34 0 0 Z " fill="#3B3E64" transform="translate(46,111)"/>
<path d="M0 0 C0.33 0 0.66 0 1 0 C1.29036665 3.38115833 1.4327734 6.62753411 1 10 C-1.3125 12.6875 -1.3125 12.6875 -4 14 C-4.99 13.67 -5.98 13.34 -7 13 C-6.21625 12.34 -5.4325 11.68 -4.625 11 C-1.3549438 7.26279291 -0.89790231 4.81602145 0 0 Z " fill="#4C4F72" transform="translate(109,110)"/>
<path d="M0 0 C0.94488281 -0.00257812 1.88976562 -0.00515625 2.86328125 -0.0078125 C5.57345736 0.119637 8.04723585 0.51903774 10.6875 1.125 C10.6875 1.455 10.6875 1.785 10.6875 2.125 C4.7475 2.455 -1.1925 2.785 -7.3125 3.125 C-7.3125 2.465 -7.3125 1.805 -7.3125 1.125 C-4.74519226 -0.15865387 -2.86597003 -0.00775635 0 0 Z " fill="#283D7D" transform="translate(91.3125,111.875)"/>
<path d="M0 0 C4.875 0.875 4.875 0.875 6 2 C6.14115161 4.67058851 6.04247107 7.32432238 6 10 C5.01 10 4.02 10 3 10 C3 7.69 3 5.38 3 3 C1.68 2.67 0.36 2.34 -1 2 C-0.67 1.34 -0.34 0.68 0 0 Z " fill="#454872" transform="translate(81,85)"/>
<path d="M0 0 C0.66 0 1.32 0 2 0 C1.625 1.9375 1.625 1.9375 1 4 C-2.09173752 5.54586876 -4.59429552 5.29359521 -8 5 C-10.4375 3 -10.4375 3 -12 1 C-11.484375 1.165 -10.96875 1.33 -10.4375 1.5 C-7.26636124 2.15049 -4.22781666 2.0620734 -1 2 C-0.67 1.34 -0.34 0.68 0 0 Z " fill="#2B2E5C" transform="translate(98,94)"/>
<path d="M0 0 C0.66 0 1.32 0 2 0 C1 2 0 4 -1 6 C1.64 6.33 4.28 6.66 7 7 C7 7.66 7 8.32 7 9 C0.84765625 9.09765625 0.84765625 9.09765625 -1 9 C-2 8 -2 8 -2.1875 5.0625 C-2 2 -2 2 0 0 Z " fill="#B9BCD1" transform="translate(49,109)"/>
<path d="M0 0 C2.4375 0.375 2.4375 0.375 5 1 C6.35439668 3.70879335 6.06501451 6.00933268 6 9 C5.67 7.68 5.34 6.36 5 5 C4.34 5 3.68 5 3 5 C3 4.01 3 3.02 3 2 C1.35 2.66 -0.3 3.32 -2 4 C-1.34 2.68 -0.68 1.36 0 0 Z " fill="#56597E" transform="translate(101,90)"/>
<path d="M0 0 C-2.3129482 2.3129482 -3.47904875 2.49580975 -6.625 3.125 C-7.44226562 3.29257813 -8.25953125 3.46015625 -9.1015625 3.6328125 C-10.04128906 3.81457031 -10.04128906 3.81457031 -11 4 C-8.36255031 -1.84006718 -6.04918208 -1.00819701 0 0 Z " fill="#656786" transform="translate(57,107)"/>
<path d="M0 0 C0.99 0.33 1.98 0.66 3 1 C2.01 2.485 2.01 2.485 1 4 C3.64 4.33 6.28 4.66 9 5 C9 5.33 9 5.66 9 6 C5.37 6 1.74 6 -2 6 C-1 1 -1 1 0 0 Z " fill="#AAB5E4" transform="translate(93,106)"/>
<path d="M0 0 C3.3 0.99 6.6 1.98 10 3 C8 4 6 5 4 6 C3.01 5.67 2.02 5.34 1 5 C0.67 3.35 0.34 1.7 0 0 Z " fill="#DAE9ED" transform="translate(48,121)"/>
<path d="M0 0 C-0.33 0.99 -0.66 1.98 -1 3 C-4.63 3 -8.26 3 -12 3 C-12 2.67 -12 2.34 -12 2 C-10.37787941 1.47026689 -8.75218416 0.95146893 -7.125 0.4375 C-6.22007813 0.14746094 -5.31515625 -0.14257812 -4.3828125 -0.44140625 C-2 -1 -2 -1 0 0 Z " fill="#212D62" transform="translate(109,110)"/>
<path d="M0 0 C0.33 0 0.66 0 1 0 C0.67 2.31 0.34 4.62 0 7 C-0.99 7 -1.98 7 -3 7 C-3.66 7.99 -4.32 8.98 -5 10 C-5 8.35 -5 6.7 -5 5 C-3.35 4.67 -1.7 4.34 0 4 C0 2.68 0 1.36 0 0 Z " fill="#B8BAD1" transform="translate(84,88)"/>
<path d="M0 0 C0.66 0 1.32 0 2 0 C0.70700306 2.88437779 -0.65941363 4.87219421 -3 7 C-3.99 6.01 -4.98 5.02 -6 4 C-5.195625 3.525625 -4.39125 3.05125 -3.5625 2.5625 C-1.15246512 1.23099846 -1.15246512 1.23099846 0 0 Z " fill="#2D2F5F" transform="translate(79,87)"/>
<path d="M0 0 C0 0.66 0 1.32 0 2 C0.99 2.33 1.98 2.66 3 3 C2.01 3 1.02 3 0 3 C-0.33 3.99 -0.66 4.98 -1 6 C-1.66 5.01 -2.32 4.02 -3 3 C-3.66 3 -4.32 3 -5 3 C-5 2.34 -5 1.68 -5 1 C-3 0 -3 0 0 0 Z " fill="#B7B9CA" transform="translate(68,101)"/>
<path d="M0 0 C2.475 0.495 2.475 0.495 5 1 C5 2.65 5 4.3 5 6 C3.0625 5.25 3.0625 5.25 1 4 C0.25 1.875 0.25 1.875 0 0 Z " fill="#585D8F" transform="translate(74,92)"/>
</svg>
