<?xml version="1.0" encoding="UTF-8"?>
<svg version="1.1" xmlns="http://www.w3.org/2000/svg" width="133" height="168">
<path d="M0 0 C43.89 0 87.78 0 133 0 C133 55.44 133 110.88 133 168 C89.11 168 45.22 168 0 168 C0 112.56 0 57.12 0 0 Z " fill="#FAFAFD" transform="translate(0,0)"/>
<path d="M0 0 C0.88365234 0.00064453 1.76730469 0.00128906 2.67773438 0.00195312 C3.59748047 0.01806641 4.51722656 0.03417969 5.46484375 0.05078125 C6.38845703 0.04755859 7.31207031 0.04433594 8.26367188 0.04101562 C15.13529202 0.09622952 15.13529202 0.09622952 17.40234375 2.36328125 C18.19304368 5.10031946 18.80386846 7.85684352 19.42578125 10.63671875 C20.54401944 13.75883978 22.05007741 15.08658973 24.40234375 17.36328125 C25.15234375 21.11328125 25.15234375 21.11328125 25.40234375 24.36328125 C26.39234375 24.69328125 27.38234375 25.02328125 28.40234375 25.36328125 C28.40234375 28.00328125 28.40234375 30.64328125 28.40234375 33.36328125 C27.41234375 33.69328125 26.42234375 34.02328125 25.40234375 34.36328125 C25.45455078 35.99136719 25.45455078 35.99136719 25.5078125 37.65234375 C25.53596763 39.09764067 25.56326594 40.54295446 25.58984375 41.98828125 C25.61498047 42.70113281 25.64011719 43.41398437 25.66601562 44.1484375 C25.73200514 48.94367555 25.12404095 52.23949761 22.40234375 56.36328125 C21.41234375 56.69328125 20.42234375 57.02328125 19.40234375 57.36328125 C19.34626953 58.39388672 19.34626953 58.39388672 19.2890625 59.4453125 C19.22332031 60.34636719 19.15757813 61.24742188 19.08984375 62.17578125 C19.00283203 63.51576172 19.00283203 63.51576172 18.9140625 64.8828125 C18.31332391 67.79478966 17.72575545 68.56412819 15.40234375 70.36328125 C13.16577148 70.75146484 13.16577148 70.75146484 10.5859375 70.76171875 C9.65716797 70.76558594 8.72839844 70.76945312 7.77148438 70.7734375 C6.32032227 70.75603516 6.32032227 70.75603516 4.83984375 70.73828125 C3.86853516 70.74988281 2.89722656 70.76148438 1.89648438 70.7734375 C0.96900391 70.76957031 0.04152344 70.76570313 -0.9140625 70.76171875 C-2.18938843 70.75664307 -2.18938843 70.75664307 -3.49047852 70.75146484 C-4.53353149 70.55931396 -4.53353149 70.55931396 -5.59765625 70.36328125 C-7.82268435 67.0257391 -8.16635669 64.69427712 -8.7421875 60.8125 C-9.50205829 58.1014615 -9.50205829 58.1014615 -12.11181641 55.70068359 C-15.0630919 52.22487811 -15.31108393 48.95937224 -15.2265625 44.515625 C-15.22897446 43.78130753 -15.23138641 43.04699005 -15.23387146 42.29042053 C-15.23289684 40.74653696 -15.2195953 39.20261676 -15.19458008 37.65893555 C-15.1601932 35.30331265 -15.1739555 32.95143121 -15.19335938 30.59570312 C-15.18646184 29.08982788 -15.17679027 27.58396225 -15.1640625 26.078125 C-15.16902237 25.37904526 -15.17398224 24.67996552 -15.17909241 23.95970154 C-15.06511694 19.20270269 -14.02282807 16.67079907 -10.59765625 13.36328125 C-9.93765625 13.36328125 -9.27765625 13.36328125 -8.59765625 13.36328125 C-8.56027344 12.67621094 -8.52289063 11.98914063 -8.484375 11.28125 C-8.41863281 10.38019531 -8.35289063 9.47914062 -8.28515625 8.55078125 C-8.22714844 7.65746094 -8.16914062 6.76414062 -8.109375 5.84375 C-7.12674798 1.08063428 -4.62581579 -0.01703545 0 0 Z " fill="#9084B0" transform="translate(62.59765625,63.63671875)"/>
<path d="M0 0 C2.47436523 -0.38818359 2.47436523 -0.38818359 5.55859375 -0.3984375 C6.66654297 -0.40230469 7.77449219 -0.40617187 8.91601562 -0.41015625 C10.65915039 -0.39275391 10.65915039 -0.39275391 12.4375 -0.375 C13.59572266 -0.38660156 14.75394531 -0.39820312 15.94726562 -0.41015625 C17.05650391 -0.40628906 18.16574219 -0.40242188 19.30859375 -0.3984375 C20.32751709 -0.39505371 21.34644043 -0.39166992 22.39624023 -0.38818359 C25 0 25 0 26.83081055 1.10302734 C28.59886111 3.97163308 28.38917349 6.40436754 28.3984375 9.75 C28.40130768 10.40452148 28.40417786 11.05904297 28.40713501 11.73339844 C28.40917368 13.11524319 28.40365746 14.49711693 28.39111328 15.87890625 C28.37505436 17.9928445 28.39096601 20.10487113 28.41015625 22.21875 C28.40817378 23.56250422 28.40433002 24.90625724 28.3984375 26.25 C28.39505371 27.47203125 28.39166992 28.6940625 28.38818359 29.953125 C28 33 28 33 26.83081055 34.89916992 C24.25420623 36.44843101 22.30444391 36.37204589 19.30859375 36.36328125 C18.19935547 36.36263672 17.09011719 36.36199219 15.94726562 36.36132812 C14.20993164 36.3371582 14.20993164 36.3371582 12.4375 36.3125 C11.27541016 36.31572266 10.11332031 36.31894531 8.91601562 36.32226562 C0.26691946 36.26691946 0.26691946 36.26691946 -2 34 C-2.25878906 30.97485352 -2.25878906 30.97485352 -2.265625 27.12890625 C-2.26753845 26.45077377 -2.2694519 25.7726413 -2.27142334 25.07395935 C-2.27278481 23.63906483 -2.26909099 22.20415799 -2.26074219 20.76928711 C-2.25005805 18.57442458 -2.26062956 16.3803836 -2.2734375 14.18554688 C-2.27211557 12.79166486 -2.26955249 11.39778336 -2.265625 10.00390625 C-2.26336914 8.73361572 -2.26111328 7.4633252 -2.25878906 6.15454102 C-2 3 -2 3 0 0 Z " fill="#E9EAF6" transform="translate(55,81)"/>
<path d="M0 0 C0.66 0 1.32 0 2 0 C0.47291037 3.43595166 -1.59927045 6.11912454 -4 9 C-3.2575 8.195625 -2.515 7.39125 -1.75 6.5625 C1.83018868 3.22641509 1.83018868 3.22641509 5 3 C5.33 3.33 5.66 3.66 6 4 C5.65702023 9.14469653 5.21081451 12.80124257 2 17 C-2.2390881 19.82605874 -6.02124503 19.66012246 -11 19 C-14.39488422 16.94892412 -15.80323081 15.29515379 -18 12 C-18 11.01 -18 10.02 -18 9 C-15 6.8125 -15 6.8125 -12 5 C-12.33 4.01 -12.66 3.02 -13 2 C-12.4225 2.309375 -11.845 2.61875 -11.25 2.9375 C-10.5075 3.288125 -9.765 3.63875 -9 4 C-8.360625 4.309375 -7.72125 4.61875 -7.0625 4.9375 C-4.65525691 5.25209596 -4.65525691 5.25209596 -2.375 2.5625 C-1.59125 1.716875 -0.8075 0.87125 0 0 Z " fill="#BEC6FB" transform="translate(74,93)"/>
<path d="M0 0 C1.09699219 -0.00064453 2.19398437 -0.00128906 3.32421875 -0.00195312 C4.46503906 0.01802734 5.60585937 0.03800781 6.78125 0.05859375 C8.49248047 0.04795898 8.49248047 0.04795898 10.23828125 0.03710938 C19.80422333 0.11017474 19.80422333 0.11017474 23.28125 3.49609375 C24.9378156 8.46579056 24.54549254 13.63264852 24.57641602 18.83789062 C24.58794239 20.18988505 24.60840523 21.54183374 24.63793945 22.89355469 C24.68070917 24.85188195 24.69419668 26.81077905 24.70703125 28.76953125 C24.72161377 29.93919434 24.73619629 31.10885742 24.7512207 32.31396484 C24.17287573 36.22988607 23.21052671 37.84867184 20.28125 40.49609375 C17.50390625 41.12719727 17.50390625 41.12719727 14.34375 41.125 C12.63058594 41.12790039 12.63058594 41.12790039 10.8828125 41.13085938 C9.69429687 41.10701172 8.50578125 41.08316406 7.28125 41.05859375 C5.49847656 41.0750293 5.49847656 41.0750293 3.6796875 41.09179688 C-4.94646032 41.01877644 -4.94646032 41.01877644 -8.05664062 38.91381836 C-10.33894726 35.59394724 -10.23602213 33.25574527 -10.25 29.24609375 C-10.2538269 28.5509668 -10.25765381 27.85583984 -10.26159668 27.13964844 C-10.2643118 25.67381334 -10.25697835 24.20792947 -10.24023438 22.7421875 C-10.21881419 20.502804 -10.24004443 18.26662788 -10.265625 16.02734375 C-10.26298165 14.60025336 -10.2578565 13.17316496 -10.25 11.74609375 C-10.24548828 10.451875 -10.24097656 9.15765625 -10.23632812 7.82421875 C-9.71875 4.49609375 -9.71875 4.49609375 -8.04296875 2.07397461 C-5.15404922 0.11272598 -3.47488266 -0.0064329 0 0 Z M-5.71875 2.49609375 C-8.18341096 6.19308519 -7.97654399 8.09030306 -7.984375 12.5 C-7.98628845 13.1790892 -7.9882019 13.85817841 -7.99017334 14.55784607 C-7.99153247 15.9909604 -7.98785496 17.42408716 -7.97949219 18.85717773 C-7.96877167 21.0541536 -7.97940453 23.25031489 -7.9921875 25.44726562 C-7.99086618 26.83984556 -7.98830436 28.23242498 -7.984375 29.625 C-7.98211914 30.8941626 -7.97986328 32.1633252 -7.97753906 33.47094727 C-8.03638907 36.60796372 -8.03638907 36.60796372 -5.71875 38.49609375 C-1.59123852 38.95425363 2.56875768 38.82010233 6.71875 38.80859375 C8.45608398 38.83276367 8.45608398 38.83276367 10.22851562 38.85742188 C11.33775391 38.85806641 12.44699219 38.85871094 13.58984375 38.859375 C14.60876709 38.86235596 15.62769043 38.86533691 16.67749023 38.8684082 C19.25802144 38.67158996 19.25802144 38.67158996 21.11206055 37.39526367 C22.8790683 34.52502911 22.67042062 32.09276286 22.6796875 28.74609375 C22.68255768 28.09157227 22.68542786 27.43705078 22.68838501 26.76269531 C22.69042368 25.38085056 22.68490746 23.99897682 22.67236328 22.6171875 C22.65630436 20.50324925 22.67221601 18.39122262 22.69140625 16.27734375 C22.68942378 14.93358953 22.68558002 13.58983651 22.6796875 12.24609375 C22.67630371 11.0240625 22.67291992 9.80203125 22.66943359 8.54296875 C22.50291083 5.56347301 22.50291083 5.56347301 21.11206055 3.59912109 C18.53969981 2.04932434 16.58290448 2.10759604 13.58984375 2.09765625 C12.48060547 2.09378906 11.37136719 2.08992188 10.22851562 2.0859375 C9.07029297 2.09753906 7.91207031 2.10914062 6.71875 2.12109375 C4.97561523 2.10369141 4.97561523 2.10369141 3.19726562 2.0859375 C2.08931641 2.08980469 0.98136719 2.09367187 -0.16015625 2.09765625 C-1.68684937 2.10273193 -1.68684937 2.10273193 -3.24438477 2.10791016 C-4.06092529 2.23601074 -4.87746582 2.36411133 -5.71875 2.49609375 Z " fill="#373865" transform="translate(60.71875,78.50390625)"/>
<path d="M0 0 C0.88365234 0.00064453 1.76730469 0.00128906 2.67773438 0.00195312 C3.59748047 0.01806641 4.51722656 0.03417969 5.46484375 0.05078125 C6.38845703 0.04755859 7.31207031 0.04433594 8.26367188 0.04101562 C15.13529202 0.09622952 15.13529202 0.09622952 17.40234375 2.36328125 C17.67226281 5.0516751 17.48971732 7.65470061 17.40234375 10.36328125 C17.07234375 10.36328125 16.74234375 10.36328125 16.40234375 10.36328125 C15.74234375 8.05328125 15.08234375 5.74328125 14.40234375 3.36328125 C8.13234375 3.36328125 1.86234375 3.36328125 -4.59765625 3.36328125 C-5.25765625 6.33328125 -5.91765625 9.30328125 -6.59765625 12.36328125 C0.99234375 12.36328125 8.58234375 12.36328125 16.40234375 12.36328125 C16.40234375 12.69328125 16.40234375 13.02328125 16.40234375 13.36328125 C15.73178955 13.37262695 15.06123535 13.38197266 14.37036133 13.39160156 C11.31778808 13.44544721 8.26672393 13.5290662 5.21484375 13.61328125 C4.15974609 13.62746094 3.10464844 13.64164063 2.01757812 13.65625 C-4.18541341 13.8203208 -4.18541341 13.8203208 -9.7734375 16.28515625 C-13.97096024 21.06691663 -12.78365932 27.07633275 -12.78295898 33.11181641 C-12.78514065 35.22318825 -12.80328728 37.33403346 -12.82226562 39.4453125 C-12.82520067 40.7903628 -12.82718472 42.13541558 -12.828125 43.48046875 C-12.83223389 44.70362793 -12.83634277 45.92678711 -12.84057617 47.18701172 C-12.60634747 50.24964029 -12.3921616 51.90181985 -10.59765625 54.36328125 C-7.48670637 56.51180779 -4.67675388 56.6586292 -0.95703125 56.77734375 C0.64785156 56.83535156 0.64785156 56.83535156 2.28515625 56.89453125 C3.95191406 56.9409375 3.95191406 56.9409375 5.65234375 56.98828125 C6.77898437 57.02695313 7.905625 57.065625 9.06640625 57.10546875 C11.84488923 57.19965461 14.62336709 57.28527711 17.40234375 57.36328125 C17.40234375 57.69328125 17.40234375 58.02328125 17.40234375 58.36328125 C9.48234375 58.36328125 1.56234375 58.36328125 -6.59765625 58.36328125 C-5.93765625 61.33328125 -5.27765625 64.30328125 -4.59765625 67.36328125 C2.33234375 67.36328125 9.26234375 67.36328125 16.40234375 67.36328125 C16.07234375 68.35328125 15.74234375 69.34328125 15.40234375 70.36328125 C11.94416775 70.45011415 8.48627031 70.50361407 5.02734375 70.55078125 C4.0425 70.57591797 3.05765625 70.60105469 2.04296875 70.62695312 C1.10195313 70.63662109 0.1609375 70.64628906 -0.80859375 70.65625 C-1.67790527 70.67196045 -2.5472168 70.6876709 -3.44287109 70.70385742 C-4.1539502 70.59146729 -4.8650293 70.47907715 -5.59765625 70.36328125 C-7.82268435 67.0257391 -8.16635669 64.69427712 -8.7421875 60.8125 C-9.50205829 58.1014615 -9.50205829 58.1014615 -12.11181641 55.70068359 C-15.0630919 52.22487811 -15.31108393 48.95937224 -15.2265625 44.515625 C-15.22897446 43.78130753 -15.23138641 43.04699005 -15.23387146 42.29042053 C-15.23289684 40.74653696 -15.2195953 39.20261676 -15.19458008 37.65893555 C-15.1601932 35.30331265 -15.1739555 32.95143121 -15.19335938 30.59570312 C-15.18646184 29.08982788 -15.17679027 27.58396225 -15.1640625 26.078125 C-15.16902237 25.37904526 -15.17398224 24.67996552 -15.17909241 23.95970154 C-15.06511694 19.20270269 -14.02282807 16.67079907 -10.59765625 13.36328125 C-9.93765625 13.36328125 -9.27765625 13.36328125 -8.59765625 13.36328125 C-8.56027344 12.67621094 -8.52289063 11.98914063 -8.484375 11.28125 C-8.41863281 10.38019531 -8.35289063 9.47914062 -8.28515625 8.55078125 C-8.22714844 7.65746094 -8.16914062 6.76414062 -8.109375 5.84375 C-7.12674798 1.08063428 -4.62581579 -0.01703545 0 0 Z " fill="#11113F" transform="translate(62.59765625,63.63671875)"/>
<path d="M0 0 C4.10650376 1.94125632 5.59926842 3.05281626 7.375 7.25 C7.58125 8.1575 7.7875 9.065 8 10 C7.236875 10.0825 6.47375 10.165 5.6875 10.25 C2.44475565 11.15495191 1.83734184 12.28773348 0 15 C-0.66 15 -1.32 15 -2 15 C-0.47291037 11.56404834 1.59927045 8.88087546 4 6 C3.54109375 6.44472656 3.0821875 6.88945313 2.609375 7.34765625 C1.99578125 7.91355469 1.3821875 8.47945312 0.75 9.0625 C0.14671875 9.63097656 -0.4565625 10.19945313 -1.078125 10.78515625 C-3 12 -3 12 -5.09375 11.78125 C-7.37835819 10.84493517 -9.0983693 9.56205379 -11 8 C-10.34 9.32 -9.68 10.64 -9 12 C-13.75 15 -13.75 15 -16 15 C-16.48970976 7.776781 -16.48970976 7.776781 -14.1875 4.125 C-9.60260488 -0.32889811 -6.14292206 -0.83862417 0 0 Z " fill="#CED7F7" transform="translate(72,87)"/>
<path d="M0 0 C0.88494141 -0.01224609 1.76988281 -0.02449219 2.68164062 -0.03710938 C3.52791016 -0.03904297 4.37417969 -0.04097656 5.24609375 -0.04296875 C6.02525146 -0.04707764 6.80440918 -0.05118652 7.60717773 -0.05541992 C9.5625 0.1875 9.5625 0.1875 11.5625 2.1875 C11.5625 4.4975 11.5625 6.8075 11.5625 9.1875 C4.3025 9.1875 -2.9575 9.1875 -10.4375 9.1875 C-10.4375 -1.83966121 -9.27939374 0.00672907 0 0 Z " fill="#CBC7F1" transform="translate(67.4375,65.8125)"/>
<path d="M0 0 C7.26 0 14.52 0 22 0 C21.67 2.97 21.34 5.94 21 9 C17.68744674 9.02683436 14.37510817 9.0467578 11.0625 9.0625 C10.11697266 9.07087891 9.17144531 9.07925781 8.19726562 9.08789062 C6.84858398 9.09272461 6.84858398 9.09272461 5.47265625 9.09765625 C4.64000244 9.10289307 3.80734863 9.10812988 2.94946289 9.11352539 C1 9 1 9 0 8 C0 5.36 0 2.72 0 0 Z " fill="#D4D2F5" transform="translate(57,123)"/>
<path d="M0 0 C1.09699219 -0.00064453 2.19398437 -0.00128906 3.32421875 -0.00195312 C4.46503906 0.01802734 5.60585937 0.03800781 6.78125 0.05859375 C8.49248047 0.04795898 8.49248047 0.04795898 10.23828125 0.03710938 C18.42881244 0.09966925 18.42881244 0.09966925 21.61425781 1.58105469 C24.13536086 4.4772955 23.7336476 6.78674084 23.671875 10.5703125 C23.66621521 11.25414505 23.66055542 11.9379776 23.65472412 12.64253235 C23.63235816 14.82360274 23.58216765 17.00302128 23.53125 19.18359375 C23.511185 20.6633877 23.49293422 22.14320745 23.4765625 23.62304688 C23.43249474 27.24793135 23.36346822 30.87185131 23.28125 34.49609375 C22.95125 34.49609375 22.62125 34.49609375 22.28125 34.49609375 C22.26143066 33.62807129 22.24161133 32.76004883 22.22119141 31.86572266 C22.14315128 28.64883108 22.05646119 25.4323233 21.96386719 22.21582031 C21.92555673 20.82300803 21.89070741 19.4300961 21.859375 18.03710938 C21.81377093 16.03623067 21.75473377 14.03567229 21.6953125 12.03515625 C21.64818115 10.22845459 21.64818115 10.22845459 21.60009766 8.38525391 C21.57209774 5.37009195 21.57209774 5.37009195 19.28125 3.49609375 C15.13268538 3.03853148 10.95212925 3.17207198 6.78125 3.18359375 C5.61464844 3.16748047 4.44804688 3.15136719 3.24609375 3.13476562 C2.13363281 3.13412109 1.02117188 3.13347656 -0.125 3.1328125 C-1.14916016 3.12983154 -2.17332031 3.12685059 -3.22851562 3.1237793 C-4.46118164 3.30807495 -4.46118164 3.30807495 -5.71875 3.49609375 C-8.07584642 7.03173838 -8.01884735 8.7163463 -8.1328125 12.9140625 C-8.17148437 14.16767578 -8.21015625 15.42128906 -8.25 16.71289062 C-8.2809375 18.02322266 -8.311875 19.33355469 -8.34375 20.68359375 C-8.38194338 22.01890535 -8.42099591 23.35419267 -8.4609375 24.68945312 C-8.55534153 27.95819263 -8.64092017 31.22692439 -8.71875 34.49609375 C-9.04875 34.49609375 -9.37875 34.49609375 -9.71875 34.49609375 C-9.81782258 30.29694068 -9.89031173 26.09841123 -9.93847656 21.8984375 C-9.95855982 20.47058254 -9.98583252 19.0428095 -10.02050781 17.61523438 C-10.06917669 15.55969007 -10.09174967 13.5052352 -10.109375 11.44921875 C-10.13032227 10.21333008 -10.15126953 8.97744141 -10.17285156 7.70410156 C-9.71875 4.49609375 -9.71875 4.49609375 -8.05175781 2.0925293 C-5.15668476 0.11148255 -3.49012307 -0.00646111 0 0 Z " fill="#1A184C" transform="translate(60.71875,78.50390625)"/>
<path d="M0 0 C0.33 0 0.66 0 1 0 C1 1.65 1 3.3 1 5 C0.34 5 -0.32 5 -1 5 C-0.94779297 6.62808594 -0.94779297 6.62808594 -0.89453125 8.2890625 C-0.86637612 9.73435942 -0.83907781 11.17967321 -0.8125 12.625 C-0.78736328 13.33785156 -0.76222656 14.05070312 -0.73632812 14.78515625 C-0.67033861 19.5803943 -1.2783028 22.87621636 -4 27 C-4.99 27.33 -5.98 27.66 -7 28 C-7.33 31.3 -7.66 34.6 -8 38 C-8.99 38 -9.98 38 -11 38 C-11 35.69 -11 33.38 -11 31 C-17.93 30.67 -24.86 30.34 -32 30 C-32.33 30.66 -32.66 31.32 -33 32 C-33 31.01 -33 30.02 -33 29 C-25.08 29 -17.16 29 -9 29 C-9 28.34 -9 27.68 -9 27 C-7.78763672 26.00419922 -7.78763672 26.00419922 -6.55078125 24.98828125 C-2.99715538 20.8251514 -3.22314066 17.49795768 -3.1875 12.1875 C-3.16236328 11.30384766 -3.13722656 10.42019531 -3.11132812 9.50976562 C-3.05269442 7.34031866 -3.02342614 5.17011273 -3 3 C-2.01 3 -1.02 3 0 3 C0 2.01 0 1.02 0 0 Z " fill="#3A3C6B" transform="translate(89,93)"/>
<path d="M0 0 C3.14581423 -0.02888514 6.29159469 -0.04675923 9.4375 -0.0625 C10.33533203 -0.07087891 11.23316406 -0.07925781 12.15820312 -0.08789062 C13.01220703 -0.09111328 13.86621094 -0.09433594 14.74609375 -0.09765625 C15.93223267 -0.10551147 15.93223267 -0.10551147 17.14233398 -0.11352539 C19 0 19 0 20 1 C20.04063832 2.66617115 20.042721 4.33388095 20 6 C17.625 6.625 17.625 6.625 15 7 C14.34 6.34 13.68 5.68 13 5 C10.80708918 4.54337847 8.59414111 4.179588 6.375 3.875 C5.18648437 3.70742187 3.99796875 3.53984375 2.7734375 3.3671875 C1.85820313 3.24601562 0.94296875 3.12484375 0 3 C0 2.01 0 1.02 0 0 Z " fill="#DDDEEA" transform="translate(58,66)"/>
<path d="M0 0 C0.88365234 0.00064453 1.76730469 0.00128906 2.67773438 0.00195312 C3.59748047 0.01806641 4.51722656 0.03417969 5.46484375 0.05078125 C6.38845703 0.04755859 7.31207031 0.04433594 8.26367188 0.04101562 C15.13529202 0.09622952 15.13529202 0.09622952 17.40234375 2.36328125 C17.67226281 5.0516751 17.48971732 7.65470061 17.40234375 10.36328125 C17.07234375 10.36328125 16.74234375 10.36328125 16.40234375 10.36328125 C15.74234375 8.05328125 15.08234375 5.74328125 14.40234375 3.36328125 C8.13234375 3.36328125 1.86234375 3.36328125 -4.59765625 3.36328125 C-5.25765625 6.33328125 -5.91765625 9.30328125 -6.59765625 12.36328125 C-7.58765625 12.85828125 -7.58765625 12.85828125 -8.59765625 13.36328125 C-8.51032049 11.75811028 -8.40213401 10.15406463 -8.28515625 8.55078125 C-8.22714844 7.65746094 -8.16914062 6.76414062 -8.109375 5.84375 C-7.12674798 1.08063428 -4.62581579 -0.01703545 0 0 Z " fill="#212350" transform="translate(62.59765625,63.63671875)"/>
<path d="M0 0 C0.33 0 0.66 0 1 0 C1.33 1.98 1.66 3.96 2 6 C8.93 6 15.86 6 23 6 C22.67 6.99 22.34 7.98 22 9 C18.541824 9.0868329 15.08392656 9.14033282 11.625 9.1875 C10.14773437 9.22520508 10.14773437 9.22520508 8.640625 9.26367188 C7.22910156 9.27817383 7.22910156 9.27817383 5.7890625 9.29296875 C4.91975098 9.3086792 4.05043945 9.32438965 3.15478516 9.34057617 C2.44370605 9.22818604 1.73262695 9.1157959 1 9 C-1.14809171 5.77786243 -1.29386153 4.72224599 -1 1 C-0.67 0.67 -0.34 0.34 0 0 Z " fill="#181B4A" transform="translate(56,125)"/>
<path d="M0 0 C0.80824219 0.38027344 1.61648437 0.76054688 2.44921875 1.15234375 C3.06410156 1.45269531 3.67898437 1.75304687 4.3125 2.0625 C4.3125 2.7225 4.3125 3.3825 4.3125 4.0625 C0.3525 4.0625 -3.6075 4.0625 -7.6875 4.0625 C-7.6875 2.4125 -7.6875 0.7625 -7.6875 -0.9375 C-4.04589192 -2.15136936 -3.35584531 -1.6049695 0 0 Z " fill="#DFDDFB" transform="translate(65.6875,126.9375)"/>
<path d="M0 0 C0.33 0 0.66 0 1 0 C1 1.65 1 3.3 1 5 C0.34 5 -0.32 5 -1 5 C-0.97679688 6.13179688 -0.95359375 7.26359375 -0.9296875 8.4296875 C-0.91093099 9.91145175 -0.89273066 11.39322312 -0.875 12.875 C-0.85824219 13.62136719 -0.84148437 14.36773437 -0.82421875 15.13671875 C-0.8066041 17.09194461 -0.89679811 19.04742021 -1 21 C-1.66 21.66 -2.32 22.32 -3 23 C-3 16.4 -3 9.8 -3 3 C-2.01 3 -1.02 3 0 3 C0 2.01 0 1.02 0 0 Z " fill="#222257" transform="translate(89,93)"/>
<path d="M0 0 C0.33 0 0.66 0 1 0 C1.12406007 4.03825066 1.21455045 8.07575638 1.2746582 12.11547852 C1.29972617 13.48807102 1.33379082 14.86053102 1.37719727 16.23266602 C1.43817531 18.21050696 1.46361009 20.18934184 1.48828125 22.16796875 C1.51446533 23.35672607 1.54064941 24.5454834 1.56762695 25.77026367 C0.84301484 29.89322867 -0.85080515 31.35641983 -4 34 C-3.42655063 31.13275314 -3.1385485 30.1385485 -1 28 C-0.62731113 25.08811755 -0.62731113 25.08811755 -0.5859375 21.6796875 C-0.54726562 20.42285156 -0.50859375 19.16601562 -0.46875 17.87109375 C-0.4378125 16.55238281 -0.406875 15.23367187 -0.375 13.875 C-0.33681971 12.53513082 -0.29776794 11.19528617 -0.2578125 9.85546875 C-0.1632797 6.57045381 -0.07772844 3.28544862 0 0 Z " fill="#41376F" transform="translate(84,85)"/>
<path d="M0 0 C0.66 0 1.32 0 2 0 C0.44499019 3.81684226 -2.03595495 6.19195732 -5 9 C-7.94956528 7.63055898 -10.52468811 6.12169591 -13 4 C-13 3.34 -13 2.68 -13 2 C-12.4225 2.309375 -11.845 2.61875 -11.25 2.9375 C-10.5075 3.288125 -9.765 3.63875 -9 4 C-8.0409375 4.4640625 -8.0409375 4.4640625 -7.0625 4.9375 C-4.65525691 5.25209596 -4.65525691 5.25209596 -2.375 2.5625 C-1.59125 1.716875 -0.8075 0.87125 0 0 Z " fill="#2B3160" transform="translate(74,93)"/>
<path d="M0 0 C3.63 0 7.26 0 11 0 C10.34 1.32 9.68 2.64 9 4 C6.36 3.67 3.72 3.34 1 3 C1 4.65 1 6.3 1 8 C0.67 8 0.34 8 0 8 C0 5.36 0 2.72 0 0 Z " fill="#C7C4F4" transform="translate(57,123)"/>
<path d="M0 0 C0.33 0 0.66 0 1 0 C1 1.65 1 3.3 1 5 C-1.375 5.625 -1.375 5.625 -4 6 C-4.66 5.34 -5.32 4.68 -6 4 C-8.20250992 3.53993654 -8.20250992 3.53993654 -10.625 3.375 C-11.85089844 3.26285156 -11.85089844 3.26285156 -13.1015625 3.1484375 C-13.72804687 3.09945312 -14.35453125 3.05046875 -15 3 C-15 2.67 -15 2.34 -15 2 C-10.05 2 -5.1 2 0 2 C0 1.34 0 0.68 0 0 Z " fill="#DFDEF9" transform="translate(77,67)"/>
<path d="M0 0 C0.66 0.66 1.32 1.32 2 2 C4.19671883 2.29380822 4.19671883 2.29380822 6.71875 2.23046875 C8.11673828 2.22756836 8.11673828 2.22756836 9.54296875 2.22460938 C10.51878906 2.21236328 11.49460937 2.20011719 12.5 2.1875 C13.47582031 2.18685547 14.45164062 2.18621094 15.45703125 2.18554688 C20.38978314 2.35138468 20.38978314 2.35138468 25 1 C24.67 1.99 24.34 2.98 24 4 C15.75 4 7.5 4 -1 4 C-0.67 2.68 -0.34 1.36 0 0 Z " fill="#CCCDE7" transform="translate(55,131)"/>
<path d="M0 0 C0.99 0.33 1.98 0.66 3 1 C2.875 2.875 2.875 2.875 2 5 C-2.58916476 7.29458238 -6.05316434 6.98936713 -11 6 C-11 5.67 -11 5.34 -11 5 C-10.37351562 4.97421875 -9.74703125 4.9484375 -9.1015625 4.921875 C-8.28429687 4.86515625 -7.46703125 4.8084375 -6.625 4.75 C-5.81289062 4.70359375 -5.00078125 4.6571875 -4.1640625 4.609375 C-1.81161073 4.2077908 -1.81161073 4.2077908 -0.7109375 1.953125 C-0.47632812 1.30859375 -0.24171875 0.6640625 0 0 Z " fill="#E6E4F9" transform="translate(81,130)"/>
<path d="M0 0 C2.33333333 2.33333333 4.66666667 4.66666667 7 7 C6.01 8.485 6.01 8.485 5 10 C3.02 7.36 1.04 4.72 -1 2 C-0.67 1.34 -0.34 0.68 0 0 Z " fill="#252455" transform="translate(49,114)"/>
<path d="M0 0 C0.268125 0.5775 0.53625 1.155 0.8125 1.75 C2.01719859 4.0325868 3.40798115 5.9737942 5 8 C2.03 7.505 2.03 7.505 -1 7 C-0.67 4.69 -0.34 2.38 0 0 Z " fill="#303066" transform="translate(80,71)"/>
</svg>
