<?xml version="1.0" encoding="UTF-8"?>
<svg version="1.1" xmlns="http://www.w3.org/2000/svg" width="133" height="124">
<path d="M0 0 C43.89 0 87.78 0 133 0 C133 40.92 133 81.84 133 124 C89.11 124 45.22 124 0 124 C0 83.08 0 42.16 0 0 Z " fill="#F6F9FD" transform="translate(0,0)"/>
<path d="M0 0 C7.41996519 4.51042405 13.35702434 11.87955282 15.83642578 20.26416016 C16.28533499 22.40621101 16.36640712 24.24235423 16.30859375 26.42578125 C16.29022461 27.54339844 16.29022461 27.54339844 16.27148438 28.68359375 C16.23614915 30.24357847 16.19704884 31.80348217 16.15429688 33.36328125 C16.12466434 35.37132102 16.19609003 37.38026676 16.28125 39.38671875 C16.94125 40.04671875 17.60125 40.70671875 18.28125 41.38671875 C18.82181183 47.54912362 17.83643249 52.73718682 15.28125 58.38671875 C12.47492938 61.19303937 9.616084 60.95435417 5.84375 61.19921875 C5.16248047 61.26302734 4.48121094 61.32683594 3.77929688 61.39257812 C0.85027088 61.59626162 -1.1672184 61.73551344 -3.6953125 60.13671875 C-6.12564836 55.98102996 -3.90398066 50.13569491 -2.8203125 45.75390625 C-0.09057203 35.75854078 -0.09057203 35.75854078 2.28125 33.38671875 C5.90625 33.76171875 5.90625 33.76171875 9.28125 34.38671875 C9.61125 35.37671875 9.94125 36.36671875 10.28125 37.38671875 C10.94125 37.38671875 11.60125 37.38671875 12.28125 37.38671875 C12.28125 34.08671875 12.28125 30.78671875 12.28125 27.38671875 C11.29125 27.05671875 10.30125 26.72671875 9.28125 26.38671875 C8.5078125 24.3125 8.5078125 24.3125 7.90625 21.69921875 C6.32480816 16.01413808 4.52164766 12.35885901 -0.71484375 9.171875 C-7.01338714 5.92436914 -12.60119234 4.3225987 -19.71875 5.38671875 C-25.31062255 7.76386286 -30.66838177 11.01807067 -33.71875 16.38671875 C-34.54430939 19.00235246 -35.27464475 21.6089849 -35.91015625 24.27734375 C-36.17699219 24.9734375 -36.44382812 25.66953125 -36.71875 26.38671875 C-37.70875 26.71671875 -38.69875 27.04671875 -39.71875 27.38671875 C-39.38875 30.35671875 -39.05875 33.32671875 -38.71875 36.38671875 C-37.72875 35.39671875 -36.73875 34.40671875 -35.71875 33.38671875 C-33.28125 32.88671875 -33.28125 32.88671875 -30.71875 33.38671875 C-26.81930173 37.3163953 -25.61629898 41.16084983 -24.40625 46.38671875 C-24.22513672 47.08539063 -24.04402344 47.7840625 -23.85742188 48.50390625 C-22.90655506 52.42576936 -22.39229977 55.52795444 -23.71875 59.38671875 C-26.56839947 62.23636822 -28.62367824 61.72044981 -32.59375 61.76171875 C-33.82867187 61.79007812 -35.06359375 61.8184375 -36.3359375 61.84765625 C-39.71875 61.38671875 -39.71875 61.38671875 -42.05078125 59.66796875 C-45.45662117 55.0098645 -46.83798135 49.61237064 -46.53125 43.88671875 C-45.71875 41.38671875 -45.71875 41.38671875 -43.71875 39.38671875 C-43.67752311 36.5096705 -43.73100418 33.6950773 -43.84375 30.82421875 C-43.96616892 23.78686011 -43.75274544 18.38352391 -39.71875 12.38671875 C-39.25597656 11.62101562 -38.79320312 10.8553125 -38.31640625 10.06640625 C-29.63066871 -2.80292615 -13.95471684 -6.45632192 0 0 Z " fill="#2F3364" transform="translate(79.71875,33.61328125)"/>
<path d="M0 0 C3.85788288 2.73411519 6.26971184 5.76914779 8.6015625 9.84375 C9.5296875 11.390625 9.5296875 11.390625 10.4765625 12.96875 C11.71394095 16.13093938 11.84198948 18.47777223 11.6015625 21.84375 C10.9415625 21.84375 10.2815625 21.84375 9.6015625 21.84375 C9.41722656 20.998125 9.23289063 20.1525 9.04296875 19.28125 C6.89008885 10.86109752 4.12780834 5.4837171 -3.3984375 0.84375 C-10.11713459 -1.90728408 -17.87371393 -2.53860649 -24.87890625 -0.3984375 C-28.61422355 1.3816199 -31.95580373 3.4616417 -34.3984375 6.84375 C-34.94782338 8.75044219 -35.48851784 10.66318838 -35.89453125 12.60546875 C-36.75881206 16.44448353 -38.10897708 20.13010399 -39.3984375 23.84375 C-40.0584375 23.84375 -40.7184375 23.84375 -41.3984375 23.84375 C-41.0684375 26.81375 -40.7384375 29.78375 -40.3984375 32.84375 C-39.4084375 31.85375 -38.4184375 30.86375 -37.3984375 29.84375 C-34.9609375 29.34375 -34.9609375 29.34375 -32.3984375 29.84375 C-28.49898923 33.77342655 -27.29598648 37.61788108 -26.0859375 42.84375 C-25.90482422 43.54242188 -25.72371094 44.24109375 -25.53710938 44.9609375 C-24.58624256 48.88280061 -24.07198727 51.98498569 -25.3984375 55.84375 C-28.24808697 58.69339947 -30.30336574 58.17748106 -34.2734375 58.21875 C-35.50835937 58.24710938 -36.74328125 58.27546875 -38.015625 58.3046875 C-41.3984375 57.84375 -41.3984375 57.84375 -43.73046875 56.125 C-47.13630867 51.46689575 -48.51766885 46.06940189 -48.2109375 40.34375 C-47.3984375 37.84375 -47.3984375 37.84375 -45.3984375 35.84375 C-45.12189362 33.90693864 -45.12189362 33.90693864 -45.203125 31.7109375 C-45.20957031 30.90527344 -45.21601562 30.09960938 -45.22265625 29.26953125 C-45.24779297 28.00689453 -45.24779297 28.00689453 -45.2734375 26.71875 C-45.28697266 25.44451172 -45.28697266 25.44451172 -45.30078125 24.14453125 C-45.32438103 22.04415116 -45.36025267 19.94391556 -45.3984375 17.84375 C-44.7384375 17.84375 -44.0784375 17.84375 -43.3984375 17.84375 C-43.058125 17.05871094 -42.7178125 16.27367188 -42.3671875 15.46484375 C-38.38055287 6.82360113 -34.29918284 1.82263442 -26.2109375 -3.09375 C-16.68074047 -5.74970655 -8.62977415 -4.82720876 0 0 Z " fill="#242B5D" transform="translate(81.3984375,37.15625)"/>
<path d="M0 0 C4.15007173 2.52273196 7.23505381 5.63131946 10.28125 9.38671875 C10.81105469 10.0209375 11.34085938 10.65515625 11.88671875 11.30859375 C16.86913582 18.51007052 15.71306953 27.02861194 15.28125 35.38671875 C14.95125 35.38671875 14.62125 35.38671875 14.28125 35.38671875 C14.28125 32.74671875 14.28125 30.10671875 14.28125 27.38671875 C12.63125 27.05671875 10.98125 26.72671875 9.28125 26.38671875 C9.12269531 25.73445313 8.96414062 25.0821875 8.80078125 24.41015625 C7.04284649 17.82518516 5.37845899 12.88032344 -0.71484375 9.171875 C-7.00369096 5.92936846 -12.61062743 4.30395819 -19.71875 5.38671875 C-24.84989318 7.69975904 -29.25655769 10.99423008 -33.71875 14.38671875 C-33.63677415 11.59953986 -33.15639605 9.86919108 -31.26953125 7.7890625 C-24.82256624 2.09727344 -19.56981324 0.91384282 -11.0078125 1.078125 C-3.68311255 1.76535932 1.8509683 4.96870217 6.83984375 10.31640625 C9.93238573 14.75826871 11.28125 20.01475228 11.28125 25.38671875 C11.94125 25.38671875 12.60125 25.38671875 13.28125 25.38671875 C11.85281363 17.67316238 9.16677151 10.37790561 2.76953125 5.453125 C-5.1144293 0.65369208 -11.50431476 -0.39934682 -20.71875 0.38671875 C-23.75457361 1.28767285 -26.12784125 2.58615602 -28.71875 4.38671875 C-29.770625 5.08796875 -30.8225 5.78921875 -31.90625 6.51171875 C-37.14006582 11.13063271 -40.17742937 18.52999071 -40.71875 25.38671875 C-42.35589506 22.88284983 -42.73640415 21.60526501 -42.4921875 18.58203125 C-40.9022834 12.01363955 -36.40767335 6.42522407 -31.0703125 2.37890625 C-21.30398116 -3.5496292 -10.64228074 -4.92378248 0 0 Z " fill="#161C54" transform="translate(79.71875,33.61328125)"/>
<path d="M0 0 C6.84725716 4.16228817 12.61542985 10.77008974 15.28125 18.38671875 C15.37817794 21.02315866 14.99391435 22.81016301 14.28125 25.38671875 C13.95125 25.38671875 13.62125 25.38671875 13.28125 25.38671875 C13.075 24.27296875 12.86875 23.15921875 12.65625 22.01171875 C10.62777369 14.17568696 7.087074 8.08146854 0.09375 3.82421875 C-7.10012925 -0.07660978 -15.14580293 -1.26718812 -23.140625 1.10546875 C-25.1360872 2.0645281 -26.90191187 3.12409959 -28.71875 4.38671875 C-29.770625 5.08796875 -30.8225 5.78921875 -31.90625 6.51171875 C-37.14006582 11.13063271 -40.17742937 18.52999071 -40.71875 25.38671875 C-42.35589506 22.88284983 -42.73640415 21.60526501 -42.4921875 18.58203125 C-40.9022834 12.01363955 -36.40767335 6.42522407 -31.0703125 2.37890625 C-21.30398116 -3.5496292 -10.64228074 -4.92378248 0 0 Z " fill="#272A58" transform="translate(79.71875,33.61328125)"/>
<path d="M0 0 C1.875 0.0625 1.875 0.0625 4 1 C8.30965782 7.79599887 9.41570696 15.10156782 9 23 C8 24 8 24 5.4375 24.0625 C4.633125 24.041875 3.82875 24.02125 3 24 C2.13003414 20.92090233 1.28184148 17.83621369 0.4375 14.75 C0.19064453 13.87730469 -0.05621094 13.00460938 -0.31054688 12.10546875 C-0.53935547 11.26113281 -0.76816406 10.41679688 -1.00390625 9.546875 C-1.21861572 8.77182617 -1.4333252 7.99677734 -1.65454102 7.19824219 C-2.03335907 4.78772784 -1.80393442 3.28833854 -1 1 C-0.67 0.67 -0.34 0.34 0 0 Z " fill="#677CEA" transform="translate(45,69)"/>
<path d="M0 0 C1.65 0.33 3.3 0.66 5 1 C6.0354051 4.1848935 5.94040666 6.13031874 5.00390625 9.328125 C4.77509766 10.12734375 4.54628906 10.9265625 4.31054688 11.75 C4.06369141 12.575 3.81683594 13.4 3.5625 14.25 C3.19801758 15.51070312 3.19801758 15.51070312 2.82617188 16.796875 C2.22626051 18.86715734 1.61429181 20.93393897 1 23 C-0.65 23.33 -2.3 23.66 -4 24 C-5.48185289 22.04332805 -6.0552797 20.58332237 -5.82226562 18.12451172 C-5.36579833 15.87367356 -4.82773303 13.66027156 -4.25 11.4375 C-4.06695312 10.66986328 -3.88390625 9.90222656 -3.6953125 9.11132812 C-2.80501901 5.51567096 -2.09163516 3.13745275 0 0 Z " fill="#818BF5" transform="translate(83,69)"/>
<path d="M0 0 C5.31155788 2.97110889 8.55819002 6.25036361 11.5625 11.5 C12.490625 13.046875 12.490625 13.046875 13.4375 14.625 C14.67487845 17.78718938 14.80292698 20.13402223 14.5625 23.5 C13.9025 23.5 13.2425 23.5 12.5625 23.5 C12.37816406 22.654375 12.19382813 21.80875 12.00390625 20.9375 C9.85102635 12.51734752 7.08874584 7.1399671 -0.4375 2.5 C-7.1575107 -0.25157195 -14.81530797 -0.81848589 -21.84765625 1.1875 C-23.8892268 2.13157887 -25.61827261 3.18033162 -27.4375 4.5 C-27.99050781 4.87769531 -28.54351562 5.25539063 -29.11328125 5.64453125 C-34.59493435 10.14683194 -35.76732666 16.87825394 -37.4375 23.5 C-38.0975 23.5 -38.7575 23.5 -39.4375 23.5 C-39.19787357 15.95176749 -37.42634077 11.21996399 -32.4375 5.5 C-22.97823931 -3.14635547 -11.94547982 -5.48121767 0 0 Z " fill="#BABDD2" transform="translate(78.4375,35.5)"/>
<path d="M0 0 C4.875 0.875 4.875 0.875 6 2 C6.4759384 7.8302454 5.26847563 11.73713653 3 17 C2 18 2 18 -1.0625 18.0625 C-2.031875 18.041875 -3.00125 18.02125 -4 18 C-3.35155914 13.80716882 -2.48783354 9.73500079 -1.4375 5.625 C-1.16808594 4.56539063 -0.89867188 3.50578125 -0.62109375 2.4140625 C-0.31365234 1.21910156 -0.31365234 1.21910156 0 0 Z " fill="#E4E5F0" transform="translate(90,74)"/>
<path d="M0 0 C2.125 0.375 2.125 0.375 4 1 C4.67155349 3.26949102 5.3373963 5.5403961 6 7.8125 C6.37125 9.07707031 6.7425 10.34164062 7.125 11.64453125 C8 15 8 15 8 18 C5.1875 18.3125 5.1875 18.3125 2 18 C-1.96880223 13.07321102 -2.34309636 8.17573441 -2 2 C-1.34 1.34 -0.68 0.68 0 0 Z " fill="#D5D8EC" transform="translate(38,74)"/>
<path d="M0 0 C2.375 0.625 2.375 0.625 4.5 2.375 C7.39844369 7.39896907 10.00213344 14.13261468 8.94921875 19.99609375 C8.75972656 20.53363281 8.57023437 21.07117188 8.375 21.625 C5.89240938 17.17610974 4.86615771 12.32059152 3.5703125 7.42578125 C2.69172618 4.4667686 2.69172618 4.4667686 0.2421875 3.73046875 C-0.37398437 3.69566406 -0.99015625 3.66085938 -1.625 3.625 C-3.27433348 7.68090812 -1.87659261 11.19692061 -0.6875 15.1875 C1.375 22.28712871 1.375 22.28712871 1.375 25.625 C0.715 25.625 0.055 25.625 -0.625 25.625 C-1.46161862 22.8342793 -2.29442737 20.04251988 -3.125 17.25 C-3.36347656 16.4559375 -3.60195313 15.661875 -3.84765625 14.84375 C-4.07324219 14.08320312 -4.29882812 13.32265625 -4.53125 12.5390625 C-4.74072266 11.8373291 -4.95019531 11.1355957 -5.16601562 10.41259766 C-5.625 8.625 -5.625 8.625 -5.625 6.625 C-6.615 6.295 -7.605 5.965 -8.625 5.625 C-3.465 0.825 -3.465 0.825 0 0 Z " fill="#1F2767" transform="translate(46.625,66.375)"/>
<path d="M0 0 C0.33 0.66 0.66 1.32 1 2 C7.27 2.33 13.54 2.66 20 3 C20.33 4.32 20.66 5.64 21 7 C15.31920264 8.62683342 9.33029343 9.02532911 3.875 6.625 C3.25625 6.08875 2.6375 5.5525 2 5 C2 4.34 2 3.68 2 3 C-0.97 3 -3.94 3 -7 3 C-7 2.67 -7 2.34 -7 2 C-4.69 1.34 -2.38 0.68 0 0 Z " fill="#D8E2F8" transform="translate(55,93)"/>
<path d="M0 0 C0.99 0 1.98 0 3 0 C3.20496094 0.92683594 3.40992188 1.85367188 3.62109375 2.80859375 C3.89050781 4.00613281 4.15992188 5.20367187 4.4375 6.4375 C4.83775391 8.22994141 4.83775391 8.22994141 5.24609375 10.05859375 C5.70066748 12.8704686 5.70066748 12.8704686 7 14 C9.18292774 14.23481693 11.37203174 14.41363323 13.5625 14.5625 C14.76003906 14.64628906 15.95757812 14.73007813 17.19140625 14.81640625 C18.11824219 14.87699219 19.04507813 14.93757813 20 15 C20.66 13.35 21.32 11.7 22 10 C22.66 10.33 23.32 10.66 24 11 C23.25 15.75 23.25 15.75 21 18 C17.8828125 18.3359375 17.8828125 18.3359375 14.125 18.375 C12.89007813 18.40335938 11.65515625 18.43171875 10.3828125 18.4609375 C7 18 7 18 4.6640625 16.2890625 C2.8925111 13.85213969 2.04489431 11.89694816 1.25 9 C1.00765625 8.154375 0.7653125 7.30875 0.515625 6.4375 C0 4 0 4 0 0 Z " fill="#383C6C" transform="translate(33,77)"/>
<path d="M0 0 C0.33 0 0.66 0 1 0 C0.33333333 5.33333333 -0.33333333 10.66666667 -1 16 C0.65 16.33 2.3 16.66 4 17 C5.32 12.05 6.64 7.1 8 2 C10.44813593 6.89627186 9.61150645 7.98642436 8 13 C8 14.32 8 15.64 8 17 C9.32 17.66 10.64 18.32 12 19 C9.89807303 19.24887295 7.79326036 19.4734719 5.6875 19.6875 C4.51574219 19.81511719 3.34398438 19.94273438 2.13671875 20.07421875 C-1 20 -1 20 -2.92578125 18.78125 C-4.98582718 15.36531929 -3.80954887 11.72992145 -3 8 C-2.13299986 5.24920376 -1.11488827 2.66603717 0 0 Z " fill="#242A68" transform="translate(79,75)"/>
<path d="M0 0 C0.33 0.99 0.66 1.98 1 3 C2.98 3 4.96 3 7 3 C6.34 5.97 5.68 8.94 5 12 C3.35 12.33 1.7 12.66 0 13 C-1.44977894 10.65887549 -2.04314411 9.4203071 -1.7578125 6.640625 C-1.54898438 5.85171875 -1.34015625 5.0628125 -1.125 4.25 C-0.92132813 3.45078125 -0.71765625 2.6515625 -0.5078125 1.828125 C-0.34023437 1.22484375 -0.17265625 0.6215625 0 0 Z " fill="#565BED" transform="translate(79,80)"/>
<path d="M0 0 C-1.69291249 1.12860833 -3.38717494 2.25521644 -5.0859375 3.375 C-12.25575176 8.46483401 -15.88714454 14.03495256 -17.8125 22.625 C-17.874375 23.40875 -17.93625 24.1925 -18 25 C-19.63407738 22.50082283 -20.01693035 21.216769 -19.78125 18.19921875 C-18.04959116 11.10807582 -12.72981007 4.74463832 -6.6875 0.75 C-3.71084476 -1.01304935 -3.46263634 -1.15421211 0 0 Z " fill="#32365F" transform="translate(57,34)"/>
<path d="M0 0 C3.53571429 0.53571429 3.53571429 0.53571429 5 2 C5.14115161 4.67058851 5.04247107 7.32432238 5 10 C3.35 10.33 1.7 10.66 0 11 C-0.38909985 9.54536519 -0.76088029 8.08608793 -1.125 6.625 C-1.33382812 5.81289062 -1.54265625 5.00078125 -1.7578125 4.1640625 C-1.83773437 3.44992188 -1.91765625 2.73578125 -2 2 C-1.34 1.34 -0.68 0.68 0 0 Z " fill="#8DACF2" transform="translate(45,69)"/>
<path d="M0 0 C2.25 -0.3125 2.25 -0.3125 5 0 C9.94194539 4.06983738 11.10378156 10.91074012 12 17 C11.57421875 19.37109375 11.57421875 19.37109375 11 21 C8.53047712 16.58314409 7.54593692 11.76805179 6.29296875 6.8984375 C5.26464971 3.79355905 5.26464971 3.79355905 2.36328125 2.6015625 C1.19345703 2.30378906 1.19345703 2.30378906 0 2 C0 1.34 0 0.68 0 0 Z " fill="#2A2F63" transform="translate(44,67)"/>
<path d="M0 0 C0.99 0 1.98 0 3 0 C4.34721372 7.47091243 4.34721372 7.47091243 2.6875 10 C1 11 1 11 -1 11 C-2.50662097 7.98675805 -2.17770373 5.31713623 -2 2 C-1.34 1.34 -0.68 0.68 0 0 Z " fill="#F3F4F7" transform="translate(38,74)"/>
<path d="M0 0 C0.33 0 0.66 0 1 0 C1.09765625 6.15234375 1.09765625 6.15234375 1 8 C0 9 0 9 -2.5625 9.0625 C-3.366875 9.041875 -4.17125 9.02125 -5 9 C-5.33 7.35 -5.66 5.7 -6 4 C-3 2 -3 2 0 2 C0 1.34 0 0.68 0 0 Z " fill="#505EED" transform="translate(53,84)"/>
<path d="M0 0 C1.67542976 0.28604898 3.34385343 0.61781233 5 1 C5.33 2.32 5.66 3.64 6 5 C0.25 7 0.25 7 -2 7 C-1.125 1.125 -1.125 1.125 0 0 Z " fill="#9FB5EC" transform="translate(83,69)"/>
<path d="M0 0 C1.125 1.5625 1.125 1.5625 2 4 C1.411438 6.354248 0.74259349 8.68970915 0 11 C0 12.32 0 13.64 0 15 C1.32 15.66 2.64 16.32 4 17 C1.69 17 -0.62 17 -3 17 C-2.54775239 11.08507728 -1.8417395 5.64800112 0 0 Z " fill="#1D225D" transform="translate(87,77)"/>
<path d="M0 0 C3.3 0 6.6 0 10 0 C10.33 0.99 10.66 1.98 11 3 C7.04 3 3.08 3 -1 3 C-0.67 2.01 -0.34 1.02 0 0 Z " fill="#C4D2F9" transform="translate(65,96)"/>
<path d="M0 0 C4.82360189 -0.19294408 8.49646738 0.24252386 13 2 C13 2.99 13 3.98 13 5 C11 6 11 6 7.875 5.0625 C6.92625 4.711875 5.9775 4.36125 5 4 C5.33 3.34 5.66 2.68 6 2 C3.03 1.505 3.03 1.505 0 1 C0 0.67 0 0.34 0 0 Z " fill="#252C62" transform="translate(65,35)"/>
<path d="M0 0 C2.35465308 2.14059371 3.98615769 3.95847307 5 7 C4.625 10.75 4.625 10.75 4 14 C3.67 14 3.34 14 3 14 C2.71125 12.783125 2.4225 11.56625 2.125 10.3125 C1.32164208 7.08185352 0.33734591 4.05679065 -1 1 C-0.67 0.67 -0.34 0.34 0 0 Z " fill="#323566" transform="translate(90,45)"/>
<path d="M0 0 C0.33 0 0.66 0 1 0 C0.35812082 5.13503344 -0.68272247 9.9943454 -2 15 C-4 12 -4 12 -3.8125 9.75 C-2.80660001 6.34541541 -1.45959132 3.23648511 0 0 Z " fill="#292C60" transform="translate(45,45)"/>
<path d="M0 0 C0.33 0 0.66 0 1 0 C0.44687265 4.02992782 -0.1558062 8.02022924 -1 12 C-1.66 12 -2.32 12 -3 12 C-2.88541307 10.56163249 -2.75790884 9.12429034 -2.625 7.6875 C-2.55539063 6.88699219 -2.48578125 6.08648437 -2.4140625 5.26171875 C-2 3 -2 3 0 0 Z " fill="#CDD0DE" transform="translate(42,47)"/>
<path d="M0 0 C-0.66 2.31 -1.32 4.62 -2 7 C-2.66 6.67 -3.32 6.34 -4 6 C-3.67 4.68 -3.34 3.36 -3 2 C-4.32 2.33 -5.64 2.66 -7 3 C-7 2.34 -7 1.68 -7 1 C-4.53721199 -0.231394 -2.7204945 -0.07159196 0 0 Z " fill="#8A9AF4" transform="translate(88,75)"/>
<path d="M0 0 C1.70840281 1.63412443 2.93453047 2.86906094 4 5 C4.039992 6.99960012 4.04346799 9.00047242 4 11 C3.34 11 2.68 11 2 11 C0.80712589 7.12315913 0 4.08378077 0 0 Z " fill="#D1D4E0" transform="translate(89,48)"/>
<path d="M0 0 C0.66 0.33 1.32 0.66 2 1 C0.08864614 4.53600465 -1.62642766 6.78972846 -5 9 C-4.5206753 4.68607774 -3.2542015 2.83430453 0 0 Z " fill="#141850" transform="translate(51,39)"/>
<path d="M0 0 C2.64 0 5.28 0 8 0 C7.34 1.32 6.68 2.64 6 4 C4.02 4 2.04 4 0 4 C0 2.68 0 1.36 0 0 Z " fill="#CECFEB" transform="translate(86,88)"/>
<path d="M0 0 C0.99 0.33 1.98 0.66 3 1 C2.05125 1.9075 1.1025 2.815 0.125 3.75 C-2.14549867 6.00978877 -3.83296506 7.96570916 -5 11 C-4.50769231 4.6 -4.50769231 4.6 -1.9375 1.5625 C-0.9784375 0.7890625 -0.9784375 0.7890625 0 0 Z " fill="#B0B4CA" transform="translate(48,39)"/>
<path d="M0 0 C0.66 0.66 1.32 1.32 2 2 C1.34 4.31 0.68 6.62 0 9 C-0.268125 8.360625 -0.53625 7.72125 -0.8125 7.0625 C-1.88667752 4.66868314 -1.88667752 4.66868314 -5 4 C-3.35 2.68 -1.7 1.36 0 0 Z " fill="#1A2056" transform="translate(43,68)"/>
<path d="M0 0 C0.78375 0.04125 1.5675 0.0825 2.375 0.125 C1.055 0.455 -0.265 0.785 -1.625 1.125 C-2.285 3.765 -2.945 6.405 -3.625 9.125 C-4.285 8.795 -4.945 8.465 -5.625 8.125 C-4.59375 0.21875 -4.59375 0.21875 0 0 Z " fill="#3E4371" transform="translate(84.625,66.875)"/>
<path d="M0 0 C2 3 2 3 1.7578125 5.26171875 C1.54898438 6.06222656 1.34015625 6.86273438 1.125 7.6875 C0.92132813 8.49574219 0.71765625 9.30398437 0.5078125 10.13671875 C0.25644531 11.05904297 0.25644531 11.05904297 0 12 C-2.12466485 8.23909901 -2.01055246 6.22594667 -1 2 C-0.67 1.34 -0.34 0.68 0 0 Z " fill="#3D416D" transform="translate(39,47)"/>
<path d="M0 0 C0.33 0.99 0.66 1.98 1 3 C2.98 3 4.96 3 7 3 C5.75 4.5 5.75 4.5 4 6 C2.68 6 1.36 6 0 6 C0 4.02 0 2.04 0 0 Z " fill="#6A71F1" transform="translate(79,80)"/>
<path d="M0 0 C0 0.66 0 1.32 0 2 C0.66 2.33 1.32 2.66 2 3 C0.02 3.99 -1.96 4.98 -4 6 C-4 4.35 -4 2.7 -4 1 C-2 0 -2 0 0 0 Z " fill="#252A58" transform="translate(56,37)"/>
<path d="M0 0 C0.66 0.33 1.32 0.66 2 1 C-0.475 4.465 -0.475 4.465 -3 8 C-3.33 7.01 -3.66 6.02 -4 5 C-2.0625 2.3125 -2.0625 2.3125 0 0 Z " fill="#212456" transform="translate(44,41)"/>
</svg>
