<?xml version="1.0" encoding="UTF-8"?>
<svg version="1.1" xmlns="http://www.w3.org/2000/svg" width="127" height="196">
<path d="M0 0 C41.91 0 83.82 0 127 0 C127 64.68 127 129.36 127 196 C85.09 196 43.18 196 0 196 C0 131.32 0 66.64 0 0 Z " fill="#FEFCFD" transform="translate(0,0)"/>
<path d="M0 0 C0.84175781 -0.00257812 1.68351562 -0.00515625 2.55078125 -0.0078125 C3.87142578 0.00378906 3.87142578 0.00378906 5.21875 0.015625 C6.09917969 0.00789063 6.97960937 0.00015625 7.88671875 -0.0078125 C8.72847656 -0.00523438 9.57023437 -0.00265625 10.4375 0 C11.59668945 0.00338379 11.59668945 0.00338379 12.77929688 0.00683594 C14.71875 0.265625 14.71875 0.265625 16.71875 2.265625 C16.84375 5.390625 16.84375 5.390625 16.71875 8.265625 C15.06875 8.925625 13.41875 9.585625 11.71875 10.265625 C11.59446136 13.05782282 11.59446136 13.05782282 12.71875 16.265625 C14.43857881 17.78411925 14.43857881 17.78411925 16.53125 19.140625 C20.92399752 22.16113182 23.13910084 25.1690211 24.71875 30.265625 C25.5374444 36.81518024 23.59525111 42.26322323 20.15625 47.765625 C19.681875 48.260625 19.2075 48.755625 18.71875 49.265625 C18.05875 49.265625 17.39875 49.265625 16.71875 49.265625 C16.38875 50.255625 16.05875 51.245625 15.71875 52.265625 C8.78875 52.265625 1.85875 52.265625 -5.28125 52.265625 C-5.77625 50.780625 -5.77625 50.780625 -6.28125 49.265625 C-7.61241182 48.59463287 -8.94591469 47.9282726 -10.28125 47.265625 C-13.92238374 42.68049363 -14.9820342 37.47579381 -14.734375 31.7265625 C-13.72286089 26.23299449 -10.64458676 22.50213974 -6.59375 18.828125 C-4.28125 17.265625 -4.28125 17.265625 -2.28125 16.265625 C-1.62352572 13.23628009 -1.62352572 13.23628009 -1.28125 10.265625 C-1.920625 10.12125 -2.56 9.976875 -3.21875 9.828125 C-5.28125 9.265625 -5.28125 9.265625 -6.28125 8.265625 C-6.46875 5.328125 -6.46875 5.328125 -6.28125 2.265625 C-3.87295208 -0.14267292 -3.28841444 0.00959921 0 0 Z " fill="#FCBADD" transform="translate(63.28125,82.734375)"/>
<path d="M0 0 C0.84175781 -0.00257812 1.68351562 -0.00515625 2.55078125 -0.0078125 C3.87142578 0.00378906 3.87142578 0.00378906 5.21875 0.015625 C6.09917969 0.00789063 6.97960937 0.00015625 7.88671875 -0.0078125 C8.72847656 -0.00523438 9.57023437 -0.00265625 10.4375 0 C11.59668945 0.00338379 11.59668945 0.00338379 12.77929688 0.00683594 C14.71875 0.265625 14.71875 0.265625 16.71875 2.265625 C16.84375 5.390625 16.84375 5.390625 16.71875 8.265625 C15.06875 8.925625 13.41875 9.585625 11.71875 10.265625 C11.59446136 13.05782282 11.59446136 13.05782282 12.71875 16.265625 C14.43857881 17.78411925 14.43857881 17.78411925 16.53125 19.140625 C20.92399752 22.16113182 23.13910084 25.1690211 24.71875 30.265625 C25.5374444 36.81518024 23.59525111 42.26322323 20.15625 47.765625 C19.681875 48.260625 19.2075 48.755625 18.71875 49.265625 C18.05875 49.265625 17.39875 49.265625 16.71875 49.265625 C16.38875 50.255625 16.05875 51.245625 15.71875 52.265625 C8.78875 52.265625 1.85875 52.265625 -5.28125 52.265625 C-5.77625 50.780625 -5.77625 50.780625 -6.28125 49.265625 C-7.61241182 48.59463287 -8.94591469 47.9282726 -10.28125 47.265625 C-13.92238374 42.68049363 -14.9820342 37.47579381 -14.734375 31.7265625 C-13.72286089 26.23299449 -10.64458676 22.50213974 -6.59375 18.828125 C-4.28125 17.265625 -4.28125 17.265625 -2.28125 16.265625 C-1.62352572 13.23628009 -1.62352572 13.23628009 -1.28125 10.265625 C-1.920625 10.12125 -2.56 9.976875 -3.21875 9.828125 C-5.28125 9.265625 -5.28125 9.265625 -6.28125 8.265625 C-6.46875 5.328125 -6.46875 5.328125 -6.28125 2.265625 C-3.87295208 -0.14267292 -3.28841444 0.00959921 0 0 Z M-10.65625 25.453125 C-13.1093982 30.246515 -13.19428725 35.20084392 -11.66796875 40.32421875 C-10.54169673 43.10235641 -9.40828102 45.13859398 -7.28125 47.265625 C-3.20096834 47.85697017 0.91328477 47.82157024 5.03125 47.890625 C6.74344727 47.97763672 6.74344727 47.97763672 8.49023438 48.06640625 C14.51679637 48.3221257 14.51679637 48.3221257 19.60888672 45.60302734 C22.83898641 40.68715828 23.67854023 36.05671889 22.71875 30.265625 C21.23800085 25.82337754 18.76723264 22.35405841 15.14453125 19.40625 C5.87737881 15.04874837 -4.64064756 17.3795533 -10.65625 25.453125 Z " fill="#121148" transform="translate(63.28125,82.734375)"/>
<path d="M0 0 C0.99 0 1.98 0 3 0 C3 33.66 3 67.32 3 102 C1.02 102.495 1.02 102.495 -1 103 C-1.02317537 90.45639882 -1.04094162 77.91280273 -1.05181217 65.36918449 C-1.05702961 59.5446179 -1.06410663 53.72006597 -1.07543945 47.89550781 C-1.08630873 42.27397645 -1.09228543 36.65245918 -1.09487724 31.03091812 C-1.09672419 28.88673811 -1.1003308 26.74255887 -1.10573006 24.59838486 C-1.11299405 21.59405605 -1.11398867 18.5897854 -1.11352539 15.58544922 C-1.11712067 14.69999924 -1.12071594 13.81454926 -1.12442017 12.90226746 C-1.11705494 8.48515507 -0.89281314 4.34883992 0 0 Z " fill="#F1F3F7" transform="translate(15,54)"/>
<path d="M0 0 C3.3693795 1.7970024 5.86667346 3.81704954 8 7 C8 7.99 8 8.98 8 10 C6.72125 10.309375 5.4425 10.61875 4.125 10.9375 C1.89898325 11.47605244 0.05260001 11.9737 -2 13 C-9.46666667 13.35555556 -9.46666667 13.35555556 -13 11 C-15.27912938 10.54605448 -15.27912938 10.54605448 -17.6875 10.375 C-18.49574219 10.30023438 -19.30398437 10.22546875 -20.13671875 10.1484375 C-20.75160156 10.09945312 -21.36648437 10.05046875 -22 10 C-21.875 7.25 -21.875 7.25 -21 4 C-14.60838569 -1.32313662 -7.9655502 -1.29217036 0 0 Z " fill="#F9F6F9" transform="translate(76,101)"/>
<path d="M0 0 C5.62485588 2.26498654 9.03090852 6.4965613 11.37890625 11.99609375 C13.28636599 18.15035065 11.66830229 23.40869385 9 29 C7.4375 31.5 7.4375 31.5 6 33 C5.34 33 4.68 33 4 33 C3.67 33.99 3.34 34.98 3 36 C-3.93 36 -10.86 36 -18 36 C-18.495 34.515 -18.495 34.515 -19 33 C-20.33116182 32.32900787 -21.66466469 31.6626476 -23 31 C-26.64113374 26.41486863 -27.7007842 21.21016881 -27.453125 15.4609375 C-26.44161089 9.96736949 -23.36333676 6.23651474 -19.3125 2.5625 C-13.50739177 -1.35987043 -6.74752006 -0.71722865 0 0 Z M-23.375 9.1875 C-25.8281482 13.98089 -25.91303725 18.93521892 -24.38671875 24.05859375 C-23.26044673 26.83673141 -22.12703102 28.87296898 -20 31 C-15.91971834 31.59134517 -11.80546523 31.55594524 -7.6875 31.625 C-5.97530273 31.71201172 -5.97530273 31.71201172 -4.22851562 31.80078125 C1.79804637 32.0565007 1.79804637 32.0565007 6.89013672 29.33740234 C10.12023641 24.42153328 10.95979023 19.79109389 10 14 C8.51925085 9.55775254 6.04848264 6.08843341 2.42578125 3.140625 C-6.84137119 -1.21687663 -17.35939756 1.1139283 -23.375 9.1875 Z " fill="#443E6A" transform="translate(76,99)"/>
<path d="M0 0 C0.66 0.66 1.32 1.32 2 2 C1.63841063 5.49536395 -0.15368867 8.07667372 -2 11 C-2.33 11.66 -2.66 12.32 -3 13 C-2.34 13.66 -1.68 14.32 -1 15 C-6.7515349 18.7910117 -12.3403479 18.4135546 -19.0625 18.3125 C-20.13822266 18.31572266 -21.21394531 18.31894531 -22.32226562 18.32226562 C-27.42298714 18.28748079 -31.29978452 18.14052873 -36 16 C-36 15.01 -36 14.02 -36 13 C-35.01 13 -34.02 13 -33 13 C-32.67 12.34 -32.34 11.68 -32 11 C-31.60143799 11.48315674 -31.20287598 11.96631348 -30.79223633 12.46411133 C-27.41534224 15.35800054 -22.95236302 14.63827891 -18.6875 14.6875 C-17.74970703 14.74099609 -16.81191406 14.79449219 -15.84570312 14.84960938 C-10.49847283 14.93987045 -10.49847283 14.93987045 -6.04296875 12.29345703 C-3.11377098 8.47617016 -1.17584462 4.70337847 0 0 Z " fill="#FBE7F3" transform="translate(87,120)"/>
<path d="M0 0 C6.27 0 12.54 0 19 0 C19 1.65 19 3.3 19 5 C13.11699185 7.77808718 7.25450164 6.96297926 1 6 C0.67 5.67 0.34 5.34 0 5 C0 3.35 0 1.7 0 0 Z " fill="#CD96C3" transform="translate(59,85)"/>
<path d="M0 0 C2.71693091 4.07539636 2.74610205 7.21571675 2 12 C0.79839547 15.1252032 -0.59813652 17.64804537 -3 20 C-6.1875 20.625 -6.1875 20.625 -9 20 C-9.66 19.34 -10.32 18.68 -11 18 C-9.8553125 17.7525 -9.8553125 17.7525 -8.6875 17.5 C-5.22002686 15.56466615 -4.68753087 13.84911171 -3.4921875 10.17578125 C-2.77757812 7.01675409 -2.79828186 4.22749029 -3 1 C-2.01 0.67 -1.02 0.34 0 0 Z " fill="#E3A4CF" transform="translate(84,110)"/>
<path d="M0 0 C0.33 0.66 0.66 1.32 1 2 C0.01 3.485 0.01 3.485 -1 5 C-3.15478516 5.34057617 -3.15478516 5.34057617 -5.7890625 5.29296875 C-6.73007813 5.28330078 -7.67109375 5.27363281 -8.640625 5.26367188 C-9.62546875 5.23853516 -10.6103125 5.21339844 -11.625 5.1875 C-13.11386719 5.16719727 -13.11386719 5.16719727 -14.6328125 5.14648438 C-17.08908072 5.11105743 -19.54427285 5.06166196 -22 5 C-22.66 3.68 -23.32 2.36 -24 1 C-16.08 0.67 -8.16 0.34 0 0 Z " fill="#525073" transform="translate(80,130)"/>
<path d="M0 0 C0.84175781 -0.00257812 1.68351562 -0.00515625 2.55078125 -0.0078125 C3.87142578 0.00378906 3.87142578 0.00378906 5.21875 0.015625 C6.09917969 0.00789063 6.97960937 0.00015625 7.88671875 -0.0078125 C8.72847656 -0.00523438 9.57023437 -0.00265625 10.4375 0 C11.59668945 0.00338379 11.59668945 0.00338379 12.77929688 0.00683594 C14.71875 0.265625 14.71875 0.265625 16.71875 2.265625 C16.84375 5.390625 16.84375 5.390625 16.71875 8.265625 C14.73875 9.255625 12.75875 10.245625 10.71875 11.265625 C10.38875 10.275625 10.05875 9.285625 9.71875 8.265625 C11.03875 7.935625 12.35875 7.605625 13.71875 7.265625 C14.04875 5.615625 14.37875 3.965625 14.71875 2.265625 C8.44875 2.265625 2.17875 2.265625 -4.28125 2.265625 C-3.95125 3.915625 -3.62125 5.565625 -3.28125 7.265625 C-0.31125 7.760625 -0.31125 7.760625 2.71875 8.265625 C1.72875 8.595625 0.73875 8.925625 -0.28125 9.265625 C-0.61125 9.925625 -0.94125 10.585625 -1.28125 11.265625 C-3.78125 10.140625 -3.78125 10.140625 -6.28125 8.265625 C-6.71875 5.203125 -6.71875 5.203125 -6.28125 2.265625 C-3.87295208 -0.14267292 -3.28841444 0.00959921 0 0 Z " fill="#48456E" transform="translate(63.28125,82.734375)"/>
<path d="M0 0 C2.31 0 4.62 0 7 0 C7.06058594 0.60328125 7.12117188 1.2065625 7.18359375 1.828125 C7.26738281 2.62734375 7.35117187 3.4265625 7.4375 4.25 C7.55931641 5.43335937 7.55931641 5.43335937 7.68359375 6.640625 C7.97634993 8.82364639 8.42064419 10.8773182 9 13 C7.125 12.375 7.125 12.375 5 11 C3.75 7.875 3.75 7.875 3 5 C3.62053172 10.37794156 4.12425751 14.12425751 8 18 C6.1875 17.8125 6.1875 17.8125 4 17 C1.04612445 12.84269366 -0.13587517 9.37538673 -0.0625 4.3125 C-0.05347656 3.50425781 -0.04445312 2.69601563 -0.03515625 1.86328125 C-0.02355469 1.24839844 -0.01195312 0.63351563 0 0 Z " fill="#FCECF5" transform="translate(51,112)"/>
<path d="M0 0 C0.66 0.66 1.32 1.32 2 2 C1.63957105 5.48414651 0.00351373 8.18023993 -2 11 C-3.31747324 11.69748583 -4.64914193 12.36959957 -6 13 C-6.33 13.99 -6.66 14.98 -7 16 C-13.93 16 -20.86 16 -28 16 C-28 15.67 -28 15.34 -28 15 C-27.42556152 15.01160156 -26.85112305 15.02320313 -26.25927734 15.03515625 C-23.62978994 15.06482607 -21.00441889 15.03291345 -18.375 15 C-17.47136719 15.01933594 -16.56773438 15.03867188 -15.63671875 15.05859375 C-10.39544417 14.95486335 -10.39544417 14.95486335 -6.06103516 12.27539062 C-3.13139761 8.45144267 -1.17804465 4.71217859 0 0 Z " fill="#C9BED2" transform="translate(87,120)"/>
<path d="M0 0 C5.94 0 11.88 0 18 0 C18 0.66 18 1.32 18 2 C13.71 2 9.42 2 5 2 C5 2.99 5 3.98 5 5 C3.35 5 1.7 5 0 5 C0 3.35 0 1.7 0 0 Z " fill="#F4D8EA" transform="translate(59,85)"/>
<path d="M0 0 C3.3 0 6.6 0 10 0 C10 1.65 10 3.3 10 5 C6.7 5 3.4 5 0 5 C0 3.35 0 1.7 0 0 Z " fill="#D3B7D0" transform="translate(63,94)"/>
<path d="M0 0 C1.13334384 3.40003152 0.88714584 3.91278657 -0.4375 7.0625 C-1.66859606 9.93852378 -1.66859606 9.93852378 -2 13 C-4.875 13.125 -4.875 13.125 -8 13 C-8.66 12.34 -9.32 11.68 -10 11 C-9.236875 10.835 -8.47375 10.67 -7.6875 10.5 C-4.13270381 8.51592771 -3.7896922 6.55644043 -2.67578125 2.77734375 C-2 1 -2 1 0 0 Z " fill="#FBA4D4" transform="translate(83,117)"/>
<path d="M0 0 C0.33 0.99 0.66 1.98 1 3 C1.66 3.33 2.32 3.66 3 4 C3 4.66 3 5.32 3 6 C1 7.625 1 7.625 -1 9 C-2.65 7.35 -4.3 5.7 -6 4 C-2.25 0 -2.25 0 0 0 Z " fill="#FBC8E2" transform="translate(91,88)"/>
<path d="M0 0 C0.33 0 0.66 0 1 0 C1.19335938 0.81984375 1.38671875 1.6396875 1.5859375 2.484375 C1.84632812 3.56203125 2.10671875 4.6396875 2.375 5.75 C2.63023438 6.81734375 2.88546875 7.8846875 3.1484375 8.984375 C4.21453938 12.75974496 5.2234619 15.2234619 8 18 C6.1875 17.8125 6.1875 17.8125 4 17 C1.04612445 12.84269366 -0.13587517 9.37538673 -0.0625 4.3125 C-0.05347656 3.50425781 -0.04445312 2.69601563 -0.03515625 1.86328125 C-0.02355469 1.24839844 -0.01195312 0.63351563 0 0 Z " fill="#E3DCE7" transform="translate(51,112)"/>
<path d="M0 0 C0.99 1.485 0.99 1.485 2 3 C-1 3 -1 3 -3.26171875 1.046875 C-6.61448591 -1.45933041 -8.67254197 -1.58272897 -12.8125 -1.75 C-13.97394531 -1.80671875 -15.13539062 -1.8634375 -16.33203125 -1.921875 C-17.65267578 -1.96054688 -17.65267578 -1.96054688 -19 -2 C-19 -2.33 -19 -2.66 -19 -3 C-11.37809837 -4.15142028 -6.24867827 -4.89026995 0 0 Z " fill="#505176" transform="translate(82,103)"/>
<path d="M0 0 C0.99 0.33 1.98 0.66 3 1 C4.1875 3.5625 4.1875 3.5625 5 6 C-0.75 6.125 -0.75 6.125 -3 5 C-3 4.01 -3 3.02 -3 2 C-2.01 2 -1.02 2 0 2 C0 1.34 0 0.68 0 0 Z " fill="#F0D7E9" transform="translate(54,131)"/>
<path d="M0 0 C5 7.5 5 7.5 5 11 C-0.74504249 5.69688385 -0.74504249 5.69688385 -1 2 C-0.67 1.34 -0.34 0.68 0 0 Z " fill="#45456D" transform="translate(51,121)"/>
<path d="M0 0 C0.33 0.99 0.66 1.98 1 3 C3.97 3 6.94 3 10 3 C8.68 4.32 7.36 5.64 6 7 C5.67 6.01 5.34 5.02 5 4 C3.02 4 1.04 4 -1 4 C-0.67 2.68 -0.34 1.36 0 0 Z " fill="#F2D2E5" transform="translate(53,108)"/>
<path d="M0 0 C0.33 0 0.66 0 1 0 C1 1.65 1 3.3 1 5 C-0.65 5.33 -2.3 5.66 -4 6 C-4 4.68 -4 3.36 -4 2 C-2.68 2 -1.36 2 0 2 C0 1.34 0 0.68 0 0 Z " fill="#E6A8D2" transform="translate(77,85)"/>
<path d="M0 0 C1.32 0.66 2.64 1.32 4 2 C4 2.66 4 3.32 4 4 C2.02 4.99 2.02 4.99 0 6 C0 5.34 0 4.68 0 4 C-0.66 4 -1.32 4 -2 4 C-2 3.34 -2 2.68 -2 2 C-1.34 2 -0.68 2 0 2 C0 1.34 0 0.68 0 0 Z " fill="#FCDAEC" transform="translate(42,119)"/>
</svg>
