<?xml version="1.0" encoding="UTF-8"?>
<svg version="1.1" xmlns="http://www.w3.org/2000/svg" width="131" height="175">
<path d="M0 0 C43.23 0 86.46 0 131 0 C131 57.75 131 115.5 131 175 C87.77 175 44.54 175 0 175 C0 117.25 0 59.5 0 0 Z " fill="#FAFBFE" transform="translate(0,0)"/>
<path d="M0 0 C4.38556669 2.54154413 8.23968652 6.26287146 9.625 11.25 C10.07136371 14.52333387 10.0646973 17.70043766 10 21 C11.0725 20.896875 12.145 20.79375 13.25 20.6875 C17 21 17 21 19.4375 22.8125 C21.73197952 27.49323823 21.32289645 31.87850352 21 37 C21.83144531 36.96519531 22.66289063 36.93039063 23.51953125 36.89453125 C25.14955078 36.85392578 25.14955078 36.85392578 26.8125 36.8125 C27.89144531 36.77769531 28.97039062 36.74289063 30.08203125 36.70703125 C33 37 33 37 34.84375 38.31640625 C38.35715842 43.43221379 37.55839528 52.57587801 36.5859375 58.5390625 C35.26890121 64.73109879 35.26890121 64.73109879 34 66 C31.78144736 66.08783542 29.56011504 66.10694609 27.33984375 66.09765625 C26.34314415 66.09553383 26.34314415 66.09553383 25.3263092 66.09336853 C23.19666101 66.08775518 21.06711661 66.07520054 18.9375 66.0625 C17.49674631 66.05748671 16.05599097 66.05292351 14.61523438 66.04882812 C11.07678898 66.03778145 7.53840461 66.02050792 4 66 C3.67 65.01 3.34 64.02 3 63 C2.05680908 63.02618408 1.11361816 63.05236816 0.1418457 63.0793457 C-3.37133145 63.16476922 -6.88339908 63.22734298 -10.3972168 63.2746582 C-11.91529801 63.29974109 -13.43325918 63.3338166 -14.95092773 63.37719727 C-17.13815965 63.43813293 -19.32379039 63.46626895 -21.51171875 63.48828125 C-22.82615967 63.51446533 -24.14060059 63.54064941 -25.49487305 63.56762695 C-29.89063179 62.85576939 -31.34210591 61.51214946 -34 58 C-34.26554881 54.9538194 -34.26120998 52.60916167 -33.9375 49.625 C-33.86950195 48.83714111 -33.80150391 48.04928223 -33.73144531 47.23754883 C-33.58469305 45.61528412 -33.42463983 43.99416892 -33.25146484 42.37451172 C-33.01460145 40.1378774 -32.82492746 37.90192801 -32.64453125 35.66015625 C-31.67177783 25.86520352 -31.67177783 25.86520352 -28.734375 22.08203125 C-26 20 -26 20 -23.1875 19.6875 C-22.465625 19.790625 -21.74375 19.89375 -21 20 C-20.99742188 19.3709375 -20.99484375 18.741875 -20.9921875 18.09375 C-20.6838047 11.26821069 -18.99614936 6.77383826 -14 2 C-9.60545325 -0.74885229 -5.025712 -0.90323856 0 0 Z " fill="#6187FA" transform="translate(70,44)"/>
<path d="M0 0 C4.38556669 2.54154413 8.23968652 6.26287146 9.625 11.25 C10.07136371 14.52333387 10.0646973 17.70043766 10 21 C11.0725 20.896875 12.145 20.79375 13.25 20.6875 C17 21 17 21 19.4375 22.8125 C21.73197952 27.49323823 21.32289645 31.87850352 21 37 C21.83144531 36.96519531 22.66289063 36.93039063 23.51953125 36.89453125 C25.14955078 36.85392578 25.14955078 36.85392578 26.8125 36.8125 C27.89144531 36.77769531 28.97039062 36.74289063 30.08203125 36.70703125 C33 37 33 37 34.84375 38.31640625 C38.35715842 43.43221379 37.55839528 52.57587801 36.5859375 58.5390625 C35.26890121 64.73109879 35.26890121 64.73109879 34 66 C31.78144736 66.08783542 29.56011504 66.10694609 27.33984375 66.09765625 C26.34314415 66.09553383 26.34314415 66.09553383 25.3263092 66.09336853 C23.19666101 66.08775518 21.06711661 66.07520054 18.9375 66.0625 C17.49674631 66.05748671 16.05599097 66.05292351 14.61523438 66.04882812 C11.07678898 66.03778145 7.53840461 66.02050792 4 66 C3.67 65.01 3.34 64.02 3 63 C2.05680908 63.02618408 1.11361816 63.05236816 0.1418457 63.0793457 C-3.37133145 63.16476922 -6.88339908 63.22734298 -10.3972168 63.2746582 C-11.91529801 63.29974109 -13.43325918 63.3338166 -14.95092773 63.37719727 C-17.13815965 63.43813293 -19.32379039 63.46626895 -21.51171875 63.48828125 C-22.82615967 63.51446533 -24.14060059 63.54064941 -25.49487305 63.56762695 C-29.89063179 62.85576939 -31.34210591 61.51214946 -34 58 C-34.26554001 54.95392035 -34.2606034 52.6091043 -33.9375 49.625 C-33.87095215 48.83786621 -33.8044043 48.05073242 -33.73583984 47.23974609 C-33.52042292 44.82250558 -33.26391556 42.4123764 -33 40 C-32.9282959 39.26136719 -32.8565918 38.52273437 -32.78271484 37.76171875 C-31.46752552 24.28333825 -31.46752552 24.28333825 -28 21 C-25.23857697 20.47200324 -22.83634455 20.81401019 -20 21 C-20.33 21.66 -20.66 22.32 -21 23 C-23.3140622 23.73075648 -25.64828869 24.40138258 -28 25 C-28.50986264 28.64452344 -29.00605846 32.29078746 -29.5 35.9375 C-29.64308594 36.95908203 -29.78617188 37.98066406 -29.93359375 39.03320312 C-31.9029401 49.16735 -31.9029401 49.16735 -29.91088867 58.71386719 C-27.03889159 60.64687864 -24.57807545 60.43928111 -21.14453125 60.51171875 C-20.48289474 60.52966995 -19.82125824 60.54762115 -19.13957214 60.56611633 C-17.03061253 60.62020898 -14.92187901 60.65410931 -12.8125 60.6875 C-11.38082792 60.72067427 -9.94918567 60.75516405 -8.51757812 60.79101562 C-5.0119361 60.87593257 -1.50621527 60.94274921 2 61 C1.98428955 60.37955811 1.9685791 59.75911621 1.95239258 59.11987305 C1.89003786 56.30917472 1.85100852 53.49862188 1.8125 50.6875 C1.78736328 49.71103516 1.76222656 48.73457031 1.73632812 47.72851562 C1.72666016 46.79072266 1.71699219 45.85292969 1.70703125 44.88671875 C1.6913208 44.02264404 1.67561035 43.15856934 1.65942383 42.26831055 C2 40 2 40 3.30859375 38.21289062 C6.09442674 36.21519745 8.84181468 36.72041692 12.1875 36.8125 C14.09595703 36.85310547 14.09595703 36.85310547 16.04296875 36.89453125 C17.50669922 36.94673828 17.50669922 36.94673828 19 37 C18.34 33.04 17.68 29.08 17 25 C14.69 24.34 12.38 23.68 10 23 C10.495 23.99 10.495 23.99 11 25 C11.16796875 26.875 11.16796875 26.875 11.1875 29 C11.20167969 29.70125 11.21585938 30.4025 11.23046875 31.125 C11 33 11 33 9 35 C6.375 34.625 6.375 34.625 4 34 C3.505 30.535 3.505 30.535 3 27 C5 29 5 29 6 32 C6.66 32 7.32 32 8 32 C8.66 30.35 9.32 28.7 10 27 C8.68 26.67 7.36 26.34 6 26 C6.66 26 7.32 26 8 26 C7.79738522 23.4537068 7.56398451 20.91655146 7.3125 18.375 C7.23225586 17.30572266 7.23225586 17.30572266 7.15039062 16.21484375 C6.56386747 10.65562425 4.96019546 7.95411221 1 4 C-1.28547148 2.85726426 -2.76879905 2.76872743 -5.3125 2.6875 C-6.07175781 2.65011719 -6.83101562 2.61273438 -7.61328125 2.57421875 C-11.0442704 3.18629374 -12.57336846 4.52096612 -15 7 C-16.44652472 10.22887697 -16.44652472 10.22887697 -17.3125 13.75 C-17.63863281 14.92046875 -17.96476562 16.0909375 -18.30078125 17.296875 C-18.53152344 18.18890625 -18.76226562 19.0809375 -19 20 C-19.33 20 -19.66 20 -20 20 C-20.62329548 14.36725569 -20.6886319 10.20003959 -17.25 5.5 C-12.62248016 -0.20260021 -7.09246776 -1.27468315 0 0 Z " fill="#3B4173" transform="translate(70,44)"/>
<path d="M0 0 C1.25554687 -0.00128906 2.51109375 -0.00257812 3.8046875 -0.00390625 C4.46178711 -0.00181152 5.11888672 0.0002832 5.79589844 0.00244141 C7.80411335 0.00779016 9.81210459 0.00249559 11.8203125 -0.00390625 C13.07585937 -0.00261719 14.33140625 -0.00132813 15.625 0 C16.78644531 0.00112793 17.94789062 0.00225586 19.14453125 0.00341797 C21.8125 0.1328125 21.8125 0.1328125 22.8125 1.1328125 C22.85330783 3.13239614 22.85504356 5.13326504 22.8125 7.1328125 C21.1109375 7.349375 21.1109375 7.349375 19.375 7.5703125 C16.00472799 7.74452728 16.00472799 7.74452728 14.8125 9.1328125 C14.64583333 12.1328125 14.64583333 12.1328125 14.8125 15.1328125 C16.78072886 17.10104136 20.16058709 16.79529631 22.8125 17.1328125 C22.85504356 19.13235996 22.85330783 21.13322886 22.8125 23.1328125 C20.98215945 24.96315305 18.08038008 24.26324047 15.625 24.265625 C14.36945313 24.26691406 13.11390625 24.26820312 11.8203125 24.26953125 C11.16321289 24.26743652 10.50611328 24.2653418 9.82910156 24.26318359 C7.82088665 24.25783484 5.81289541 24.26312941 3.8046875 24.26953125 C2.54914063 24.26824219 1.29359375 24.26695313 0 24.265625 C-1.16144531 24.26449707 -2.32289062 24.26336914 -3.51953125 24.26220703 C-6.1875 24.1328125 -6.1875 24.1328125 -7.1875 23.1328125 C-7.2866657 21.51023706 -7.31829777 19.88341419 -7.3203125 18.2578125 C-7.32160156 17.27296875 -7.32289062 16.288125 -7.32421875 15.2734375 C-7.32035156 14.23703125 -7.31648438 13.200625 -7.3125 12.1328125 C-7.31830078 10.57820313 -7.31830078 10.57820313 -7.32421875 8.9921875 C-7.32292969 8.00734375 -7.32164063 7.0225 -7.3203125 6.0078125 C-7.31918457 5.09773438 -7.31805664 4.18765625 -7.31689453 3.25 C-7.04444875 -1.20782991 -3.7530764 0.00364477 0 0 Z " fill="#E2E2F9" transform="translate(81.1875,83.8671875)"/>
<path d="M0 0 C4.18302564 2.23780011 6.49655606 4.88366778 8.4375 9.1875 C9.17020607 14.15361893 9.1630431 18.9909538 9 24 C9.66 24.33 10.32 24.66 11 25 C10.34 26.98 9.68 28.96 9 31 C8.01 30.67 7.02 30.34 6 30 C4.75 26.5625 4.75 26.5625 4 23 C4.33 22.34 4.66 21.68 5 21 C-1.27 21 -7.54 21 -14 21 C-13.67 21.66 -13.34 22.32 -13 23 C-12.83203125 24.875 -12.83203125 24.875 -12.8125 27 C-12.79832031 27.70125 -12.78414062 28.4025 -12.76953125 29.125 C-13 31 -13 31 -15 33 C-17.5625 32.75 -17.5625 32.75 -20 32 C-21.49498913 29.01002175 -21.11577446 26.29957225 -21 23 C-20.67 22.01 -20.34 21.02 -20 20 C-21.65 19.67 -23.3 19.34 -25 19 C-25 18.67 -25 18.34 -25 18 C-23.35 18 -21.7 18 -20 18 C-20 16.35 -20 14.7 -20 13 C-19.34 13 -18.68 13 -18 13 C-17.76925781 12.39671875 -17.53851563 11.7934375 -17.30078125 11.171875 C-13.86690691 2.75684696 -9.65485607 -2.1620276 0 0 Z " fill="#313665" transform="translate(69,46)"/>
<path d="M0 0 C2.97851562 0.1953125 2.97851562 0.1953125 5.95703125 0.390625 C5.62703125 1.050625 5.29703125 1.710625 4.95703125 2.390625 C2.64296905 3.12138148 0.30874256 3.79200758 -2.04296875 4.390625 C-2.55283139 8.03514844 -3.04902721 11.68141246 -3.54296875 15.328125 C-3.68605469 16.34970703 -3.82914063 17.37128906 -3.9765625 18.42382812 C-5.94590885 28.557975 -5.94590885 28.557975 -3.95385742 38.10449219 C-1.08186034 40.03750364 1.3789558 39.82990611 4.8125 39.90234375 C5.47413651 39.92029495 6.13577301 39.93824615 6.81745911 39.95674133 C8.92641872 40.01083398 11.03515224 40.04473431 13.14453125 40.078125 C14.57620333 40.11129927 16.00784558 40.14578905 17.43945312 40.18164062 C20.94509515 40.26655757 24.45081598 40.33337421 27.95703125 40.390625 C27.9413208 39.76494629 27.92561035 39.13926758 27.90942383 38.49462891 C27.8471845 35.66838569 27.80807663 32.84228639 27.76953125 30.015625 C27.74439453 29.03078125 27.71925781 28.0459375 27.69335938 27.03125 C27.68369141 26.09023437 27.67402344 25.14921875 27.6640625 24.1796875 C27.64835205 23.31037598 27.6326416 22.44106445 27.61645508 21.54541016 C27.78504028 20.4787915 27.78504028 20.4787915 27.95703125 19.390625 C28.94703125 18.730625 29.93703125 18.070625 30.95703125 17.390625 C30.95703125 20.08100747 30.940909 22.77063766 30.921875 25.4609375 C30.91256828 27.47916579 30.90346147 29.49739501 30.89453125 31.515625 C30.88196289 33.05669922 30.88196289 33.05669922 30.86914062 34.62890625 C30.86591797 35.60472656 30.86269531 36.58054688 30.859375 37.5859375 C30.85413818 38.48328613 30.84890137 39.38063477 30.84350586 40.30517578 C30.72370674 42.37984236 30.72370674 42.37984236 31.95703125 43.390625 C33.88181938 43.54869031 35.81202335 43.64176 37.7421875 43.70703125 C39.49692383 43.76987305 39.49692383 43.76987305 41.28710938 43.83398438 C42.51880859 43.87330078 43.75050781 43.91261719 45.01953125 43.953125 C46.25509766 43.99630859 47.49066406 44.03949219 48.76367188 44.08398438 C51.8280046 44.19046698 54.89242198 44.29247924 57.95703125 44.390625 C57.95703125 44.720625 57.95703125 45.050625 57.95703125 45.390625 C48.71703125 45.390625 39.47703125 45.390625 29.95703125 45.390625 C29.62703125 44.400625 29.29703125 43.410625 28.95703125 42.390625 C28.01384033 42.41680908 27.07064941 42.44299316 26.09887695 42.4699707 C22.5856998 42.55539422 19.07363217 42.61796798 15.55981445 42.6652832 C14.04173324 42.69036609 12.52377207 42.7244416 11.00610352 42.76782227 C8.8188716 42.82875793 6.63324086 42.85689395 4.4453125 42.87890625 C3.13087158 42.90509033 1.81643066 42.93127441 0.4621582 42.95825195 C-3.93360054 42.24639439 -5.38507466 40.90277446 -8.04296875 37.390625 C-8.30850876 34.34454535 -8.30357215 31.9997293 -7.98046875 29.015625 C-7.9139209 28.22849121 -7.84737305 27.44135742 -7.77880859 26.63037109 C-7.56339167 24.21313058 -7.30688431 21.8030014 -7.04296875 19.390625 C-6.97126465 18.65199219 -6.89956055 17.91335937 -6.82568359 17.15234375 C-5.24994726 1.00381401 -5.24994726 1.00381401 0 0 Z " fill="#181C4F" transform="translate(44.04296875,64.609375)"/>
<path d="M0 0 C2.63016161 2.1727422 4.47336894 3.94673788 6 7 C6 9.64 6 12.28 6 15 C-0.27 15 -6.54 15 -13 15 C-13 6.77777778 -13 6.77777778 -10 2 C-6.24952518 -0.50031654 -4.44143734 -0.53603554 0 0 Z " fill="#E0E5F1" transform="translate(68,50)"/>
<path d="M0 0 C8.91 0 17.82 0 27 0 C27.33 0.66 27.66 1.32 28 2 C41.86 2.495 41.86 2.495 56 3 C56 3.33 56 3.66 56 4 C54.24236328 4.09087891 54.24236328 4.09087891 52.44921875 4.18359375 C50.86196164 4.26789985 49.2747233 4.35255973 47.6875 4.4375 C46.85734375 4.48116699 46.0271875 4.52483398 45.171875 4.56982422 C40.92530529 4.80252431 36.72371208 5.1144414 32.5 5.625 C21.47973885 6.71510311 9.95982949 5.2374001 -1 4 C-0.67 2.68 -0.34 1.36 0 0 Z " fill="#E1E9FB" transform="translate(46,107)"/>
<path d="M0 0 C4.38556669 2.54154413 8.23968652 6.26287146 9.625 11.25 C10.07136371 14.52333387 10.0646973 17.70043766 10 21 C11.65 21 13.3 21 15 21 C15 21.33 15 21.66 15 22 C13.35 22 11.7 22 10 22 C10.33 22.99 10.66 23.98 11 25 C11.23188622 27.72331488 11.13093368 30.25039269 11 33 C10.34 33.66 9.68 34.32 9 35 C6.375 34.625 6.375 34.625 4 34 C3.67 31.69 3.34 29.38 3 27 C5 29 5 29 6 32 C6.66 32 7.32 32 8 32 C8.66 30.35 9.32 28.7 10 27 C8.68 26.67 7.36 26.34 6 26 C6.66 26 7.32 26 8 26 C7.79738522 23.4537068 7.56398451 20.91655146 7.3125 18.375 C7.25900391 17.66214844 7.20550781 16.94929688 7.15039062 16.21484375 C6.56386747 10.65562425 4.96019546 7.95411221 1 4 C-1.28547148 2.85726426 -2.76879905 2.76872743 -5.3125 2.6875 C-6.07175781 2.65011719 -6.83101562 2.61273438 -7.61328125 2.57421875 C-11.0442704 3.18629374 -12.57336846 4.52096612 -15 7 C-16.44652472 10.22887697 -16.44652472 10.22887697 -17.3125 13.75 C-17.80169922 15.50570312 -17.80169922 15.50570312 -18.30078125 17.296875 C-18.53152344 18.18890625 -18.76226562 19.0809375 -19 20 C-19.33 20 -19.66 20 -20 20 C-20.62329548 14.36725569 -20.6886319 10.20003959 -17.25 5.5 C-12.62248016 -0.20260021 -7.09246776 -1.27468315 0 0 Z " fill="#2A2D5A" transform="translate(70,44)"/>
<path d="M0 0 C1.2065625 0.495 1.2065625 0.495 2.4375 1 C7.31827235 2.37004136 12.26147249 2.71124301 17.2109375 1.42578125 C18.09652344 1.21501953 18.09652344 1.21501953 19 1 C19.33 1.33 19.66 1.66 20 2 C24.14276875 2.24733137 24.14276875 2.24733137 28 1 C30.00800456 1.28112064 32.01014051 1.61067967 34 2 C34 3.65 34 5.3 34 7 C29.80084693 7.09907258 25.60231748 7.17156173 21.40234375 7.21972656 C19.97448879 7.23980982 18.54671575 7.26708252 17.11914062 7.30175781 C15.06359632 7.35042669 13.00914145 7.37299967 10.953125 7.390625 C9.71723633 7.41157227 8.48134766 7.43251953 7.20800781 7.45410156 C4 7 4 7 1.56542969 5.16308594 C0 3 0 3 0 0 Z " fill="#8279F0" transform="translate(38,98)"/>
<path d="M0 0 C2.875 -0.125 2.875 -0.125 6 0 C9.57386064 3.57386064 8.69029248 9.14791553 9 14 C4.38 14 -0.24 14 -5 14 C-4 12 -4 12 0 10 C0 6.7 0 3.4 0 0 Z " fill="#5B95F2" transform="translate(80,67)"/>
<path d="M0 0 C4.18302564 2.23780011 6.49655606 4.88366778 8.4375 9.1875 C9.17020607 14.15361893 9.1630431 18.9909538 9 24 C8.34 24 7.68 24 7 24 C6.97421875 23.05898437 6.9484375 22.11796875 6.921875 21.1484375 C6.69881128 11.72481146 6.69881128 11.72481146 2 4 C-1.49209548 2.25395226 -5.20032483 2.2912523 -9 3 C-12.1716236 5.34715001 -13.75734634 8.27203902 -15 12 C-15.22325814 14.05893621 -15.40705759 16.12233653 -15.5625 18.1875 C-15.64628906 19.27417969 -15.73007812 20.36085938 -15.81640625 21.48046875 C-15.87699219 22.31191406 -15.93757813 23.14335938 -16 24 C-16.33 24 -16.66 24 -17 24 C-17.6423953 8.17804167 -17.6423953 8.17804167 -11.875 1.5625 C-7.819326 -0.64167065 -4.5099638 -1.00992352 0 0 Z " fill="#C8CAD8" transform="translate(69,46)"/>
<path d="M0 0 C2.97851562 0.1953125 2.97851562 0.1953125 5.95703125 0.390625 C5.62703125 1.050625 5.29703125 1.710625 4.95703125 2.390625 C2.64296905 3.12138148 0.30874256 3.79200758 -2.04296875 4.390625 C-2.55283139 8.03514844 -3.04902721 11.68141246 -3.54296875 15.328125 C-3.68605469 16.34970703 -3.82914063 17.37128906 -3.9765625 18.42382812 C-5.87884427 28.9936229 -5.87884427 28.9936229 -3.54296875 38.953125 C-3.04796875 39.4275 -2.55296875 39.901875 -2.04296875 40.390625 C-3.52796875 40.885625 -3.52796875 40.885625 -5.04296875 41.390625 C-7.74503601 38.74441442 -8.04098465 37.4428015 -8.1875 33.58984375 C-8.09525217 32.08469467 -7.98349821 30.5806535 -7.85546875 29.078125 C-7.79794434 28.28647949 -7.74041992 27.49483398 -7.68115234 26.67919922 C-7.49284917 24.24682823 -7.27419725 21.81926691 -7.04296875 19.390625 C-6.97416504 18.65054199 -6.90536133 17.91045898 -6.83447266 17.14794922 C-5.25145312 1.00410193 -5.25145312 1.00410193 0 0 Z " fill="#20285D" transform="translate(44.04296875,64.609375)"/>
<path d="M0 0 C6.27 0 12.54 0 19 0 C18.67 1.65 18.34 3.3 18 5 C12.72 5 7.44 5 2 5 C1.34 3.35 0.68 1.7 0 0 Z " fill="#EFF2F8" transform="translate(55,67)"/>
<path d="M0 0 C4.29 0 8.58 0 13 0 C13.33 0.66 13.66 1.32 14 2 C27.86 2.495 27.86 2.495 42 3 C42 3.33 42 3.66 42 4 C36.67978261 4.04953293 31.35970024 4.08578256 26.03930664 4.10986328 C24.23036357 4.11990487 22.42143667 4.1335408 20.61254883 4.15087891 C18.00858565 4.17520832 15.40483758 4.18650161 12.80078125 4.1953125 C11.59268547 4.21079636 11.59268547 4.21079636 10.36018372 4.22659302 C6.11030774 4.22743729 2.87932557 3.96516229 -1 2 C-0.67 1.34 -0.34 0.68 0 0 Z " fill="#C3CCE4" transform="translate(60,107)"/>
<path d="M0 0 C0.66 0.33 1.32 0.66 2 1 C2 5.29 2 9.58 2 14 C3.32 14 4.64 14 6 14 C5.34 15.98 4.68 17.96 4 20 C3.01 19.67 2.02 19.34 1 19 C-0.25 15.5625 -0.25 15.5625 -1 12 C-0.67 11.34 -0.34 10.68 0 10 C-6.27 10 -12.54 10 -19 10 C-19 9.67 -19 9.34 -19 9 C-12.73 9 -6.46 9 0 9 C0 6.03 0 3.06 0 0 Z " fill="#3B406B" transform="translate(74,57)"/>
<path d="M0 0 C3.47779583 0.91757344 5.03113007 2.71396998 7.1171875 5.55859375 C8.4296875 8.37109375 8.4296875 8.37109375 9.1171875 10.55859375 C5.34864527 9.30241301 5.03760294 7.89844669 3.1171875 4.55859375 C0.12720925 3.06360462 -2.58324025 3.44281929 -5.8828125 3.55859375 C-6.8728125 3.88859375 -7.8628125 4.21859375 -8.8828125 4.55859375 C-9.91597738 7.35031614 -9.91597738 7.35031614 -10.5703125 10.62109375 C-10.82167969 11.72582031 -11.07304688 12.83054687 -11.33203125 13.96875 C-11.51378906 14.82339844 -11.69554687 15.67804687 -11.8828125 16.55859375 C-12.5428125 16.55859375 -13.2028125 16.55859375 -13.8828125 16.55859375 C-13.85567558 10.57490302 -13.01503335 6.21711241 -8.76171875 1.8203125 C-5.85333317 -0.13271981 -3.44009135 -0.28377858 0 0 Z " fill="#292C56" transform="translate(66.8828125,47.44140625)"/>
<path d="M0 0 C8.91 0 17.82 0 27 0 C27 0.66 27 1.32 27 2 C13.635 2.495 13.635 2.495 0 3 C0 2.01 0 1.02 0 0 Z " fill="#F4F4F8" transform="translate(75,84)"/>
<path d="M0 0 C2.31 0.33 4.62 0.66 7 1 C7 1.33 7 1.66 7 2 C5.35 2 3.7 2 2 2 C2.33 2.99 2.66 3.98 3 5 C3.23188622 7.72331488 3.13093368 10.25039269 3 13 C2.34 13.66 1.68 14.32 1 15 C-1.625 14.625 -1.625 14.625 -4 14 C-4.33 11.69 -4.66 9.38 -5 7 C-3 9 -3 9 -2 12 C-1.34 12 -0.68 12 0 12 C0.66 10.35 1.32 8.7 2 7 C0.68 6.67 -0.64 6.34 -2 6 C-1.34 6 -0.68 6 0 6 C0 4.02 0 2.04 0 0 Z " fill="#1E2455" transform="translate(78,64)"/>
<path d="M0 0 C0.33 0 0.66 0 1 0 C1 6.6 1 13.2 1 20 C4.96 20 8.92 20 13 20 C13 20.66 13 21.32 13 22 C11.02145742 22.19397476 9.0421352 22.38001321 7.0625 22.5625 C5.96035156 22.66691406 4.85820313 22.77132812 3.72265625 22.87890625 C2.82417969 22.91886719 1.92570312 22.95882812 1 23 C0 22 0 22 -0.11352539 19.86694336 C-0.10828857 18.95050049 -0.10305176 18.03405762 -0.09765625 17.08984375 C-0.09443359 16.10048828 -0.09121094 15.11113281 -0.08789062 14.09179688 C-0.07951172 13.05087891 -0.07113281 12.00996094 -0.0625 10.9375 C-0.05798828 9.89271484 -0.05347656 8.84792969 -0.04882812 7.77148438 C-0.03699913 5.1809334 -0.02051689 2.59049441 0 0 Z " fill="#B2B3E1" transform="translate(74,85)"/>
<path d="M0 0 C1.134375 0.020625 2.26875 0.04125 3.4375 0.0625 C3.4375 2.0425 3.4375 4.0225 3.4375 6.0625 C1.1275 6.0625 -1.1825 6.0625 -3.5625 6.0625 C-3.94468767 4.40635343 -4.27645102 2.73792976 -4.5625 1.0625 C-3.5625 0.0625 -3.5625 0.0625 0 0 Z " fill="#B8B9CF" transform="translate(101.5625,92.9375)"/>
<path d="M0 0 C0 0.33 0 0.66 0 1 C-1.051875 1.04125 -2.10375 1.0825 -3.1875 1.125 C-8.24368596 2.28543612 -9.13477855 3.78643904 -12 8 C-13.0541518 11.16245541 -13.31275672 13.86948218 -13.5625 17.1875 C-13.64628906 18.27417969 -13.73007812 19.36085938 -13.81640625 20.48046875 C-13.87699219 21.31191406 -13.93757813 22.14335938 -14 23 C-14.33 23 -14.66 23 -15 23 C-15.64748201 7.05275779 -15.64748201 7.05275779 -9.75 0.5 C-6.11841624 -1.48086387 -3.94558271 -0.9283724 0 0 Z " fill="#C1C4D3" transform="translate(67,47)"/>
<path d="M0 0 C2.12472576 -0.05386629 4.24983652 -0.09273071 6.375 -0.125 C7.55835937 -0.14820312 8.74171875 -0.17140625 9.9609375 -0.1953125 C13 0 13 0 15 2 C15.1953125 4.1640625 15.1953125 4.1640625 15.125 6.625 C15.10695313 7.44226563 15.08890625 8.25953125 15.0703125 9.1015625 C15.03550781 10.04128906 15.03550781 10.04128906 15 11 C14.34 10.67 13.68 10.34 13 10 C12.62599214 7.67284 12.29235267 5.33882138 12 3 C10.26043342 1.26043342 7.8063378 1.62809614 5.4375 1.4375 C4.42558594 1.35371094 3.41367188 1.26992187 2.37109375 1.18359375 C1.19740234 1.09271484 1.19740234 1.09271484 0 1 C0 0.67 0 0.34 0 0 Z " fill="#1F234E" transform="translate(91,82)"/>
<path d="M0 0 C1.4540625 0.0309375 1.4540625 0.0309375 2.9375 0.0625 C2.6075 1.7125 2.2775 3.3625 1.9375 5.0625 C-0.3725 5.0625 -2.6825 5.0625 -5.0625 5.0625 C-3.9375 0.08035714 -3.9375 0.08035714 0 0 Z " fill="#DAE0EB" transform="translate(46.0625,66.9375)"/>
<path d="M0 0 C0.33 0 0.66 0 1 0 C1.03738281 0.81984375 1.07476562 1.6396875 1.11328125 2.484375 C1.17902344 3.56203125 1.24476562 4.6396875 1.3125 5.75 C1.37050781 6.81734375 1.42851563 7.8846875 1.48828125 8.984375 C2.03090154 12.1821068 2.85071145 13.62598691 5 16 C4.01 16.33 3.02 16.66 2 17 C-0.70598672 14.29401328 -1.0015263 12.97596081 -1.25 9.0625 C-1.13399628 5.95940062 -0.75505383 3.0202153 0 0 Z " fill="#1D205C" transform="translate(37,89)"/>
<path d="M0 0 C2.875 -0.125 2.875 -0.125 6 0 C8 2 8 2 8 5 C6.02 5 4.04 5 2 5 C1.34 3.35 0.68 1.7 0 0 Z " fill="#DAE1EE" transform="translate(80,67)"/>
<path d="M0 0 C3.23124359 1.93874615 4.61307777 4.28524361 6.5 7.5 C6.17 8.16 5.84 8.82 5.5 9.5 C3.82346148 7.82346148 2.19510736 6.154455 0.625 4.375 C-1.78521273 2.24834171 -3.34866776 1.85014803 -6.5 1.5 C-4.03207511 -0.14528326 -2.95664381 -0.59132876 0 0 Z " fill="#333663" transform="translate(69.5,48.5)"/>
<path d="M0 0 C1.3303125 0.495 1.3303125 0.495 2.6875 1 C5.70923347 1.91222143 7.88373706 2.18330958 11 2 C11 2.66 11 3.32 11 4 C8.36 4 5.72 4 3 4 C2.67 4.66 2.34 5.32 2 6 C0 3 0 3 0 0 Z " fill="#7878F7" transform="translate(38,98)"/>
<path d="M0 0 C1.65 0 3.3 0 5 0 C4.34 1.98 3.68 3.96 3 6 C2.01 5.67 1.02 5.34 0 5 C0 3.35 0 1.7 0 0 Z " fill="#A8AFCB" transform="translate(50,71)"/>
<path d="M0 0 C1.65 0 3.3 0 5 0 C4.34 1.98 3.68 3.96 3 6 C2.01 5.67 1.02 5.34 0 5 C0 3.35 0 1.7 0 0 Z " fill="#BEC4DA" transform="translate(75,71)"/>
<path d="M0 0 C1.670625 0.061875 1.670625 0.061875 3.375 0.125 C3.705 0.785 4.035 1.445 4.375 2.125 C3.26125 2.228125 2.1475 2.33125 1 2.4375 C-0.19625 2.664375 -1.3925 2.89125 -2.625 3.125 C-3.285 4.115 -3.945 5.105 -4.625 6.125 C-5.25 4.25 -5.25 4.25 -5.625 2.125 C-3.625 0.125 -3.625 0.125 0 0 Z " fill="#2C3064" transform="translate(100.625,90.875)"/>
<path d="M0 0 C1.98 0 3.96 0 6 0 C6 0.66 6 1.32 6 2 C4.03852126 3.38938077 2.03833424 4.7260411 0 6 C0 4.02 0 2.04 0 0 Z " fill="#68A7F8" transform="translate(41,72)"/>
<path d="M0 0 C2 2 2 2 3 5 C5.00016466 6.20882096 5.00016466 6.20882096 7 7 C5.35 7.33 3.7 7.66 2 8 C-0.1519437 4.77208445 -0.20086443 3.71599191 0 0 Z " fill="#0E1951" transform="translate(73,71)"/>
<path d="M0 0 C0.33 0 0.66 0 1 0 C1.33 3.63 1.66 7.26 2 11 C1.34 11 0.68 11 0 11 C-1.125 3.375 -1.125 3.375 0 0 Z " fill="#3A3D6C" transform="translate(78,53)"/>
<path d="M0 0 C1.9453125 -0.29296875 1.9453125 -0.29296875 4.125 -0.1875 C5.40375 -0.125625 6.6825 -0.06375 8 0 C7.67 0.66 7.34 1.32 7 2 C4.93359375 2.4140625 4.93359375 2.4140625 2.4375 2.625 C1.61121094 2.69976562 0.78492188 2.77453125 -0.06640625 2.8515625 C-1.02353516 2.92503906 -1.02353516 2.92503906 -2 3 C-1.34 2.01 -0.68 1.02 0 0 Z " fill="#313463" transform="translate(42,65)"/>
<path d="M0 0 C0.99 1.32 1.98 2.64 3 4 C2.01 4 1.02 4 0 4 C-0.33 5.65 -0.66 7.3 -1 9 C-1.33 9 -1.66 9 -2 9 C-2 6.69 -2 4.38 -2 2 C-1.34 2 -0.68 2 0 2 C0 1.34 0 0.68 0 0 Z " fill="#2A3468" transform="translate(50,67)"/>
</svg>
